<mxfile host="Electron" agent="Mozilla/5.0 (Windows NT 10.0; Win64; x64) AppleWebKit/537.36 (KHTML, like Gecko) draw.io/24.7.5 Chrome/126.0.6478.183 Electron/31.3.0 Safari/537.36" version="24.7.5">
  <diagram id="iegwS-X-JDk-E4nNCH9-" name="Страница 1">
    <mxGraphModel dx="1290" dy="629" grid="1" gridSize="10" guides="1" tooltips="1" connect="1" arrows="1" fold="1" page="1" pageScale="1" pageWidth="827" pageHeight="1169" math="0" shadow="0">
      <root>
        <mxCell id="0" />
        <mxCell id="1" parent="0" />
        <mxCell id="W6bvKB6GYxlx2QuhMemM-67" style="edgeStyle=orthogonalEdgeStyle;rounded=0;orthogonalLoop=1;jettySize=auto;html=1;exitX=0.5;exitY=1;exitDx=0;exitDy=0;entryX=0.5;entryY=0;entryDx=0;entryDy=0;fontSize=12;" parent="1" source="W6bvKB6GYxlx2QuhMemM-2" target="W6bvKB6GYxlx2QuhMemM-61" edge="1">
          <mxGeometry relative="1" as="geometry" />
        </mxCell>
        <mxCell id="W6bvKB6GYxlx2QuhMemM-2" value="*Малевич" style="rounded=1;whiteSpace=wrap;html=1;" parent="1" vertex="1">
          <mxGeometry x="70" y="360" width="120" height="60" as="geometry" />
        </mxCell>
        <mxCell id="W6bvKB6GYxlx2QuhMemM-92" style="edgeStyle=orthogonalEdgeStyle;rounded=0;orthogonalLoop=1;jettySize=auto;html=1;exitX=0.5;exitY=1;exitDx=0;exitDy=0;entryX=0.5;entryY=0;entryDx=0;entryDy=0;fontSize=12;" parent="1" source="W6bvKB6GYxlx2QuhMemM-3" target="W6bvKB6GYxlx2QuhMemM-91" edge="1">
          <mxGeometry relative="1" as="geometry">
            <Array as="points" />
          </mxGeometry>
        </mxCell>
        <mxCell id="W6bvKB6GYxlx2QuhMemM-3" value="*Казан" style="rounded=1;whiteSpace=wrap;html=1;" parent="1" vertex="1">
          <mxGeometry x="290" y="360" width="120" height="60" as="geometry" />
        </mxCell>
        <mxCell id="W6bvKB6GYxlx2QuhMemM-117" style="edgeStyle=orthogonalEdgeStyle;rounded=0;orthogonalLoop=1;jettySize=auto;html=1;exitX=0.5;exitY=1;exitDx=0;exitDy=0;entryX=0.5;entryY=0;entryDx=0;entryDy=0;fontFamily=Helvetica;fontSize=12;" parent="1" source="W6bvKB6GYxlx2QuhMemM-4" target="W6bvKB6GYxlx2QuhMemM-108" edge="1">
          <mxGeometry relative="1" as="geometry" />
        </mxCell>
        <mxCell id="W6bvKB6GYxlx2QuhMemM-4" value="*Промрбот" style="rounded=1;whiteSpace=wrap;html=1;" parent="1" vertex="1">
          <mxGeometry x="500" y="360" width="120" height="60" as="geometry" />
        </mxCell>
        <mxCell id="W6bvKB6GYxlx2QuhMemM-103" style="edgeStyle=orthogonalEdgeStyle;rounded=0;orthogonalLoop=1;jettySize=auto;html=1;exitX=0.5;exitY=1;exitDx=0;exitDy=0;fontFamily=Helvetica;fontSize=12;" parent="1" source="W6bvKB6GYxlx2QuhMemM-5" target="W6bvKB6GYxlx2QuhMemM-102" edge="1">
          <mxGeometry relative="1" as="geometry" />
        </mxCell>
        <mxCell id="W6bvKB6GYxlx2QuhMemM-5" value="*Орбион" style="rounded=1;whiteSpace=wrap;html=1;" parent="1" vertex="1">
          <mxGeometry x="680" y="360" width="120" height="60" as="geometry" />
        </mxCell>
        <mxCell id="W6bvKB6GYxlx2QuhMemM-6" value="1567" style="ellipse;whiteSpace=wrap;html=1;aspect=fixed;" parent="1" vertex="1">
          <mxGeometry x="20" y="90" width="50" height="50" as="geometry" />
        </mxCell>
        <mxCell id="W6bvKB6GYxlx2QuhMemM-7" value="2784" style="ellipse;whiteSpace=wrap;html=1;aspect=fixed;" parent="1" vertex="1">
          <mxGeometry x="20" y="160" width="50" height="50" as="geometry" />
        </mxCell>
        <mxCell id="W6bvKB6GYxlx2QuhMemM-8" value="3048" style="ellipse;whiteSpace=wrap;html=1;aspect=fixed;" parent="1" vertex="1">
          <mxGeometry x="20" y="230" width="50" height="50" as="geometry" />
        </mxCell>
        <mxCell id="W6bvKB6GYxlx2QuhMemM-9" value="4650" style="ellipse;whiteSpace=wrap;html=1;aspect=fixed;" parent="1" vertex="1">
          <mxGeometry x="20" y="300" width="50" height="50" as="geometry" />
        </mxCell>
        <mxCell id="W6bvKB6GYxlx2QuhMemM-32" value="Гр.1: 1567" style="swimlane;fontStyle=0;childLayout=stackLayout;horizontal=1;startSize=30;horizontalStack=0;resizeParent=1;resizeParentMax=0;resizeLast=0;collapsible=1;marginBottom=0;fontSize=14;" parent="1" vertex="1">
          <mxGeometry x="120" y="140" width="140" height="150" as="geometry">
            <mxRectangle x="390" y="55" width="70" height="30" as="alternateBounds" />
          </mxGeometry>
        </mxCell>
        <mxCell id="W6bvKB6GYxlx2QuhMemM-33" value="1: Малевич" style="text;strokeColor=none;fillColor=none;align=left;verticalAlign=middle;spacingLeft=4;spacingRight=4;overflow=hidden;points=[[0,0.5],[1,0.5]];portConstraint=eastwest;rotatable=0;fontSize=14;" parent="W6bvKB6GYxlx2QuhMemM-32" vertex="1">
          <mxGeometry y="30" width="140" height="30" as="geometry" />
        </mxCell>
        <mxCell id="W6bvKB6GYxlx2QuhMemM-34" value="2: Казан" style="text;strokeColor=none;fillColor=none;align=left;verticalAlign=middle;spacingLeft=4;spacingRight=4;overflow=hidden;points=[[0,0.5],[1,0.5]];portConstraint=eastwest;rotatable=0;fontSize=14;" parent="W6bvKB6GYxlx2QuhMemM-32" vertex="1">
          <mxGeometry y="60" width="140" height="30" as="geometry" />
        </mxCell>
        <mxCell id="W6bvKB6GYxlx2QuhMemM-35" value="3: Промобот" style="text;strokeColor=none;fillColor=none;align=left;verticalAlign=middle;spacingLeft=4;spacingRight=4;overflow=hidden;points=[[0,0.5],[1,0.5]];portConstraint=eastwest;rotatable=0;fontSize=14;" parent="W6bvKB6GYxlx2QuhMemM-32" vertex="1">
          <mxGeometry y="90" width="140" height="30" as="geometry" />
        </mxCell>
        <mxCell id="W6bvKB6GYxlx2QuhMemM-37" value="4: Орбион" style="text;strokeColor=none;fillColor=none;align=left;verticalAlign=middle;spacingLeft=4;spacingRight=4;overflow=hidden;points=[[0,0.5],[1,0.5]];portConstraint=eastwest;rotatable=0;fontSize=14;" parent="W6bvKB6GYxlx2QuhMemM-32" vertex="1">
          <mxGeometry y="120" width="140" height="30" as="geometry" />
        </mxCell>
        <mxCell id="W6bvKB6GYxlx2QuhMemM-38" value="Гр.2: 2784" style="swimlane;fontStyle=0;childLayout=stackLayout;horizontal=1;startSize=30;horizontalStack=0;resizeParent=1;resizeParentMax=0;resizeLast=0;collapsible=1;marginBottom=0;fontSize=14;" parent="1" vertex="1">
          <mxGeometry x="280" y="140" width="140" height="150" as="geometry">
            <mxRectangle x="390" y="55" width="70" height="30" as="alternateBounds" />
          </mxGeometry>
        </mxCell>
        <mxCell id="W6bvKB6GYxlx2QuhMemM-40" value="2: Казан" style="text;strokeColor=none;fillColor=none;align=left;verticalAlign=middle;spacingLeft=4;spacingRight=4;overflow=hidden;points=[[0,0.5],[1,0.5]];portConstraint=eastwest;rotatable=0;fontSize=14;" parent="W6bvKB6GYxlx2QuhMemM-38" vertex="1">
          <mxGeometry y="30" width="140" height="30" as="geometry" />
        </mxCell>
        <mxCell id="W6bvKB6GYxlx2QuhMemM-41" value="3: Промобот" style="text;strokeColor=none;fillColor=none;align=left;verticalAlign=middle;spacingLeft=4;spacingRight=4;overflow=hidden;points=[[0,0.5],[1,0.5]];portConstraint=eastwest;rotatable=0;fontSize=14;" parent="W6bvKB6GYxlx2QuhMemM-38" vertex="1">
          <mxGeometry y="60" width="140" height="30" as="geometry" />
        </mxCell>
        <mxCell id="W6bvKB6GYxlx2QuhMemM-42" value="4: Орбион" style="text;strokeColor=none;fillColor=none;align=left;verticalAlign=middle;spacingLeft=4;spacingRight=4;overflow=hidden;points=[[0,0.5],[1,0.5]];portConstraint=eastwest;rotatable=0;fontSize=14;" parent="W6bvKB6GYxlx2QuhMemM-38" vertex="1">
          <mxGeometry y="90" width="140" height="30" as="geometry" />
        </mxCell>
        <mxCell id="W6bvKB6GYxlx2QuhMemM-39" value="1: Малевич" style="text;strokeColor=none;fillColor=none;align=left;verticalAlign=middle;spacingLeft=4;spacingRight=4;overflow=hidden;points=[[0,0.5],[1,0.5]];portConstraint=eastwest;rotatable=0;fontSize=14;" parent="W6bvKB6GYxlx2QuhMemM-38" vertex="1">
          <mxGeometry y="120" width="140" height="30" as="geometry" />
        </mxCell>
        <mxCell id="W6bvKB6GYxlx2QuhMemM-43" value="Гр.3: 3048" style="swimlane;fontStyle=0;childLayout=stackLayout;horizontal=1;startSize=30;horizontalStack=0;resizeParent=1;resizeParentMax=0;resizeLast=0;collapsible=1;marginBottom=0;fontSize=14;" parent="1" vertex="1">
          <mxGeometry x="440" y="140" width="140" height="150" as="geometry">
            <mxRectangle x="390" y="55" width="70" height="30" as="alternateBounds" />
          </mxGeometry>
        </mxCell>
        <mxCell id="W6bvKB6GYxlx2QuhMemM-46" value="3: Промобот" style="text;strokeColor=none;fillColor=none;align=left;verticalAlign=middle;spacingLeft=4;spacingRight=4;overflow=hidden;points=[[0,0.5],[1,0.5]];portConstraint=eastwest;rotatable=0;fontSize=14;" parent="W6bvKB6GYxlx2QuhMemM-43" vertex="1">
          <mxGeometry y="30" width="140" height="30" as="geometry" />
        </mxCell>
        <mxCell id="W6bvKB6GYxlx2QuhMemM-47" value="4: Орбион" style="text;strokeColor=none;fillColor=none;align=left;verticalAlign=middle;spacingLeft=4;spacingRight=4;overflow=hidden;points=[[0,0.5],[1,0.5]];portConstraint=eastwest;rotatable=0;fontSize=14;" parent="W6bvKB6GYxlx2QuhMemM-43" vertex="1">
          <mxGeometry y="60" width="140" height="30" as="geometry" />
        </mxCell>
        <mxCell id="W6bvKB6GYxlx2QuhMemM-44" value="1: Малевич" style="text;strokeColor=none;fillColor=none;align=left;verticalAlign=middle;spacingLeft=4;spacingRight=4;overflow=hidden;points=[[0,0.5],[1,0.5]];portConstraint=eastwest;rotatable=0;fontSize=14;" parent="W6bvKB6GYxlx2QuhMemM-43" vertex="1">
          <mxGeometry y="90" width="140" height="30" as="geometry" />
        </mxCell>
        <mxCell id="W6bvKB6GYxlx2QuhMemM-45" value="2: Казан" style="text;strokeColor=none;fillColor=none;align=left;verticalAlign=middle;spacingLeft=4;spacingRight=4;overflow=hidden;points=[[0,0.5],[1,0.5]];portConstraint=eastwest;rotatable=0;fontSize=14;" parent="W6bvKB6GYxlx2QuhMemM-43" vertex="1">
          <mxGeometry y="120" width="140" height="30" as="geometry" />
        </mxCell>
        <mxCell id="W6bvKB6GYxlx2QuhMemM-48" value="Гр.4: 4650" style="swimlane;fontStyle=0;childLayout=stackLayout;horizontal=1;startSize=30;horizontalStack=0;resizeParent=1;resizeParentMax=0;resizeLast=0;collapsible=1;marginBottom=0;fontSize=14;" parent="1" vertex="1">
          <mxGeometry x="600" y="140" width="140" height="150" as="geometry">
            <mxRectangle x="390" y="55" width="70" height="30" as="alternateBounds" />
          </mxGeometry>
        </mxCell>
        <mxCell id="W6bvKB6GYxlx2QuhMemM-52" value="4: Орбион" style="text;strokeColor=none;fillColor=none;align=left;verticalAlign=middle;spacingLeft=4;spacingRight=4;overflow=hidden;points=[[0,0.5],[1,0.5]];portConstraint=eastwest;rotatable=0;fontSize=14;" parent="W6bvKB6GYxlx2QuhMemM-48" vertex="1">
          <mxGeometry y="30" width="140" height="30" as="geometry" />
        </mxCell>
        <mxCell id="W6bvKB6GYxlx2QuhMemM-49" value="1: Малевич" style="text;strokeColor=none;fillColor=none;align=left;verticalAlign=middle;spacingLeft=4;spacingRight=4;overflow=hidden;points=[[0,0.5],[1,0.5]];portConstraint=eastwest;rotatable=0;fontSize=14;" parent="W6bvKB6GYxlx2QuhMemM-48" vertex="1">
          <mxGeometry y="60" width="140" height="30" as="geometry" />
        </mxCell>
        <mxCell id="W6bvKB6GYxlx2QuhMemM-50" value="2: Казан" style="text;strokeColor=none;fillColor=none;align=left;verticalAlign=middle;spacingLeft=4;spacingRight=4;overflow=hidden;points=[[0,0.5],[1,0.5]];portConstraint=eastwest;rotatable=0;fontSize=14;" parent="W6bvKB6GYxlx2QuhMemM-48" vertex="1">
          <mxGeometry y="90" width="140" height="30" as="geometry" />
        </mxCell>
        <mxCell id="W6bvKB6GYxlx2QuhMemM-51" value="3: Промобот" style="text;strokeColor=none;fillColor=none;align=left;verticalAlign=middle;spacingLeft=4;spacingRight=4;overflow=hidden;points=[[0,0.5],[1,0.5]];portConstraint=eastwest;rotatable=0;fontSize=14;" parent="W6bvKB6GYxlx2QuhMemM-48" vertex="1">
          <mxGeometry y="120" width="140" height="30" as="geometry" />
        </mxCell>
        <mxCell id="W6bvKB6GYxlx2QuhMemM-54" style="edgeStyle=orthogonalEdgeStyle;rounded=0;orthogonalLoop=1;jettySize=auto;html=1;exitX=0.5;exitY=1;exitDx=0;exitDy=0;entryX=1;entryY=0.5;entryDx=0;entryDy=0;fontSize=14;" parent="1" source="W6bvKB6GYxlx2QuhMemM-53" target="W6bvKB6GYxlx2QuhMemM-6" edge="1">
          <mxGeometry relative="1" as="geometry">
            <Array as="points">
              <mxPoint x="140" y="80" />
              <mxPoint x="140" y="115" />
            </Array>
          </mxGeometry>
        </mxCell>
        <mxCell id="W6bvKB6GYxlx2QuhMemM-55" style="edgeStyle=orthogonalEdgeStyle;rounded=0;orthogonalLoop=1;jettySize=auto;html=1;exitX=0.5;exitY=1;exitDx=0;exitDy=0;entryX=1;entryY=0.5;entryDx=0;entryDy=0;fontSize=14;" parent="1" source="W6bvKB6GYxlx2QuhMemM-53" target="W6bvKB6GYxlx2QuhMemM-7" edge="1">
          <mxGeometry relative="1" as="geometry">
            <Array as="points">
              <mxPoint x="140" y="80" />
              <mxPoint x="140" y="115" />
              <mxPoint x="100" y="115" />
              <mxPoint x="100" y="185" />
            </Array>
          </mxGeometry>
        </mxCell>
        <mxCell id="W6bvKB6GYxlx2QuhMemM-56" style="edgeStyle=orthogonalEdgeStyle;rounded=0;orthogonalLoop=1;jettySize=auto;html=1;exitX=0.5;exitY=1;exitDx=0;exitDy=0;entryX=1;entryY=0.5;entryDx=0;entryDy=0;fontSize=14;" parent="1" source="W6bvKB6GYxlx2QuhMemM-53" target="W6bvKB6GYxlx2QuhMemM-8" edge="1">
          <mxGeometry relative="1" as="geometry">
            <Array as="points">
              <mxPoint x="140" y="80" />
              <mxPoint x="140" y="115" />
              <mxPoint x="100" y="115" />
              <mxPoint x="100" y="255" />
            </Array>
          </mxGeometry>
        </mxCell>
        <mxCell id="W6bvKB6GYxlx2QuhMemM-57" style="edgeStyle=orthogonalEdgeStyle;rounded=0;orthogonalLoop=1;jettySize=auto;html=1;exitX=0.5;exitY=1;exitDx=0;exitDy=0;entryX=1;entryY=0.5;entryDx=0;entryDy=0;fontSize=14;" parent="1" source="W6bvKB6GYxlx2QuhMemM-53" target="W6bvKB6GYxlx2QuhMemM-9" edge="1">
          <mxGeometry relative="1" as="geometry">
            <Array as="points">
              <mxPoint x="140" y="80" />
              <mxPoint x="140" y="115" />
              <mxPoint x="100" y="115" />
              <mxPoint x="100" y="325" />
            </Array>
          </mxGeometry>
        </mxCell>
        <mxCell id="W6bvKB6GYxlx2QuhMemM-53" value="Приветствие, запрос кода для разбиения по маршрутам." style="rounded=1;whiteSpace=wrap;html=1;" parent="1" vertex="1">
          <mxGeometry x="74" y="20" width="140" height="60" as="geometry" />
        </mxCell>
        <mxCell id="W6bvKB6GYxlx2QuhMemM-58" value="&lt;font style=&quot;font-size: 18px;&quot;&gt;Маршруты:&lt;/font&gt;" style="text;html=1;align=center;verticalAlign=middle;resizable=0;points=[];autosize=1;strokeColor=none;fillColor=none;fontSize=14;" parent="1" vertex="1">
          <mxGeometry x="354" y="95" width="120" height="40" as="geometry" />
        </mxCell>
        <mxCell id="W6bvKB6GYxlx2QuhMemM-59" value="&lt;font style=&quot;font-size: 18px;&quot;&gt;Часть 1&lt;/font&gt;" style="rounded=1;whiteSpace=wrap;html=1;" parent="1" vertex="1">
          <mxGeometry x="720" y="25" width="90" height="50" as="geometry" />
        </mxCell>
        <mxCell id="W6bvKB6GYxlx2QuhMemM-68" style="edgeStyle=orthogonalEdgeStyle;rounded=0;orthogonalLoop=1;jettySize=auto;html=1;exitX=0.5;exitY=1;exitDx=0;exitDy=0;entryX=0.5;entryY=0;entryDx=0;entryDy=0;fontSize=12;" parent="1" source="W6bvKB6GYxlx2QuhMemM-61" target="W6bvKB6GYxlx2QuhMemM-62" edge="1">
          <mxGeometry relative="1" as="geometry" />
        </mxCell>
        <mxCell id="W6bvKB6GYxlx2QuhMemM-61" value="&lt;span style=&quot;font-size: 12px;&quot;&gt;Найти капсулу имени художника.&lt;/span&gt;" style="rounded=1;whiteSpace=wrap;html=1;" parent="1" vertex="1">
          <mxGeometry x="70" y="440" width="120" height="50" as="geometry" />
        </mxCell>
        <mxCell id="W6bvKB6GYxlx2QuhMemM-69" style="edgeStyle=orthogonalEdgeStyle;rounded=0;orthogonalLoop=1;jettySize=auto;html=1;exitX=0.5;exitY=1;exitDx=0;exitDy=0;entryX=0.5;entryY=0;entryDx=0;entryDy=0;fontSize=12;" parent="1" source="W6bvKB6GYxlx2QuhMemM-62" target="W6bvKB6GYxlx2QuhMemM-64" edge="1">
          <mxGeometry relative="1" as="geometry" />
        </mxCell>
        <mxCell id="W6bvKB6GYxlx2QuhMemM-62" value="~Малевич" style="ellipse;whiteSpace=wrap;html=1;aspect=fixed;" parent="1" vertex="1">
          <mxGeometry x="100" y="510" width="60" height="60" as="geometry" />
        </mxCell>
        <mxCell id="W6bvKB6GYxlx2QuhMemM-70" style="edgeStyle=orthogonalEdgeStyle;rounded=0;orthogonalLoop=1;jettySize=auto;html=1;exitX=0.5;exitY=1;exitDx=0;exitDy=0;entryX=0.5;entryY=0;entryDx=0;entryDy=0;fontSize=12;" parent="1" source="W6bvKB6GYxlx2QuhMemM-64" target="W6bvKB6GYxlx2QuhMemM-66" edge="1">
          <mxGeometry relative="1" as="geometry" />
        </mxCell>
        <mxCell id="W6bvKB6GYxlx2QuhMemM-64" value="&lt;br&gt;Сгенерировать изображение в&amp;nbsp;&lt;a href=&quot;@sber_rudalle_xl_bot&quot;&gt;@sber_rudalle_xl_bot&lt;/a&gt;&lt;br&gt;&amp;nbsp;(2 минуты-&amp;gt; переход).&lt;span style=&quot;color: rgba(0, 0, 0, 0); font-size: 0px; text-align: start;&quot;&gt;phModel%3E%3Croot%3E%3CmxCell%20id%3D%220%22%2F%3E%3CmxCell%20id%3D%221%22%20parent%3D%220%22%2F%3E%3CmxCell%20id%3D%222%22%20value%3D%22%26lt%3Bspan%20style%3D%26quot%3Bfont-size%3A%2012px%3B%26quot%3B%26gt%3B%D0%9D%D0%B0%D0%B9%D1%82%D0%B8%20%D0%BA%D0%B0%D0%BF%D1%81%D1%83%D0%BB%D1%83%20%D0%B5%D0%B3%D0%BE%20%D0%B8%D0%BC%D0%B5%D0%BD%D0%B8.%26lt%3B%2Fspan%26gt%3B%22%20style%3D%22rounded%3D1%3BwhiteSpace%3Dwrap%3Bhtml%3D1%3BfontSize%3D18%3B%22%20vertex%3D%221%22%20parent%3D%221%22%3E%3CmxGeometry%20x%3D%22120%22%20y%3D%22440%22%20width%3D%22120%22%20height%3D%2260%22%20as%3D%22geometry%22%2F%3E%3C%2FmxCell%3E%3C%2Froot%3E%3C%2FmxGraphModel%3&lt;/span&gt;&lt;span style=&quot;color: rgba(0, 0, 0, 0); font-size: 0px; text-align: start;&quot;&gt;%3CmxGraphModel%3E%3Croot%3E%3CmxCell%20id%3D%220%22%2F%3E%3CmxCell%20id%3D%221%22%20parent%3D%220%22%2F%3E%3CmxCell%20id%3D%222%22%20value%3D%22%26lt%3Bspan%20style%3D%26quot%3Bfont-size%3A%2012px%3B%26quot%3B%26gt%3B%D0%9D%D0%B0%D0%B9%D1%82%D0%B8%20%D0%BA%D0%B0%D0%BF%D1%81%D1%83%D0%BB%D1%83%20%D0%B5%D0%B3%D0%BE%20%D0%B8%D0%BC%D0%B5%D0%BD%D0%B8.%26lt%3B%2Fspan%26gt%3B%22%20style%3D%22rounded%3D1%3BwhiteSpace%3Dwrap%3Bhtml%3D1%3BfontSize%3D18%3B%22%20vertex%3D%221%22%20parent%3D%221%22%3E%3CmxGeometry%20x%3D%22120%22%20y%3D%22440%22%20width%3D%22120%22%20height%3D%2260%22%20as%3D%22geometry%22%2F%3E%3C%2FmxCell%3E%3C%2Froot%3E%3C%2FmxGraphModel%3E&lt;/span&gt;&lt;br&gt;&lt;span style=&quot;color: rgba(0, 0, 0, 0); font-size: 0px; text-align: start;&quot;&gt;%3CmxGraphModel%3E%3Croot%3E%3CmxCell%20id%3D%220%22%2F%3E%3CmxCell%20id%3D%221%22%20parent%3D%220%22%2F%3E%3CmxCell%20id%3D%222%22%20value%3D%22%26lt%3Bspan%20style%3D%26quot%3Bfont-size%3A%2012px%3B%26quot%3B%26gt%3B%D0%9D%D0%B0%D0%B9%D1%82%D0%B8%20%D0%BA%D0%B0%D0%BF%D1%81%D1%83%D0%BB%D1%83%20%D0%B5%D0%B3%D0%BE%20%D0%B8%D0%BC%D0%B5%D0%BD%D0%B8.%26lt%3B%2Fspan%26gt%3B%22%20style%3D%22rounded%3D1%3BwhiteSpace%3Dwrap%3Bhtml%3D1%3BfontSize%3D18%3B%22%20vertex%3D%221%22%20parent%3D%221%22%3E%3CmxGeometry%20x%3D%22120%22%20y%3D%22440%22%20width%3D%22120%22%20height%3D%2260%22%20as%3D%22geometry%22%2F%3E%3C%2FmxCell%3E%3C%2Froot%3E%3C%2FmxGraphModel%3Eю&lt;/span&gt;" style="rounded=1;whiteSpace=wrap;html=1;" parent="1" vertex="1">
          <mxGeometry x="35" y="590" width="190" height="60" as="geometry" />
        </mxCell>
        <mxCell id="W6bvKB6GYxlx2QuhMemM-72" style="edgeStyle=orthogonalEdgeStyle;rounded=0;orthogonalLoop=1;jettySize=auto;html=1;exitX=0.5;exitY=1;exitDx=0;exitDy=0;entryX=0.5;entryY=0;entryDx=0;entryDy=0;fontSize=12;" parent="1" source="W6bvKB6GYxlx2QuhMemM-66" target="W6bvKB6GYxlx2QuhMemM-71" edge="1">
          <mxGeometry relative="1" as="geometry" />
        </mxCell>
        <mxCell id="W6bvKB6GYxlx2QuhMemM-66" value="ЧК: 8" style="rhombus;whiteSpace=wrap;html=1;" parent="1" vertex="1">
          <mxGeometry x="100" y="680" width="60" height="60" as="geometry" />
        </mxCell>
        <mxCell id="W6bvKB6GYxlx2QuhMemM-74" style="edgeStyle=orthogonalEdgeStyle;rounded=0;orthogonalLoop=1;jettySize=auto;html=1;exitX=0.5;exitY=1;exitDx=0;exitDy=0;entryX=0.5;entryY=0;entryDx=0;entryDy=0;fontSize=12;" parent="1" source="W6bvKB6GYxlx2QuhMemM-71" target="W6bvKB6GYxlx2QuhMemM-73" edge="1">
          <mxGeometry relative="1" as="geometry" />
        </mxCell>
        <mxCell id="W6bvKB6GYxlx2QuhMemM-71" value="Задание в COSPACES:&lt;br&gt;&lt;a href=&quot;https://edu.cospaces.io/XKL-GXM&quot;&gt;https://edu.cospaces.io/XKL-GXM&lt;/a&gt;" style="rounded=1;whiteSpace=wrap;html=1;" parent="1" vertex="1">
          <mxGeometry x="30" y="760" width="200" height="50" as="geometry" />
        </mxCell>
        <mxCell id="W6bvKB6GYxlx2QuhMemM-73" value="0798" style="ellipse;whiteSpace=wrap;html=1;aspect=fixed;" parent="1" vertex="1">
          <mxGeometry x="100" y="830" width="60" height="60" as="geometry" />
        </mxCell>
        <mxCell id="W6bvKB6GYxlx2QuhMemM-88" value="&lt;span style=&quot;font-size: 18px;&quot;&gt;V: 1.0.0&lt;/span&gt;&lt;div&gt;&lt;span style=&quot;font-size: 18px;&quot;&gt;подростки&lt;/span&gt;&lt;/div&gt;" style="rounded=1;whiteSpace=wrap;html=1;" parent="1" vertex="1">
          <mxGeometry x="370" y="25" width="90" height="50" as="geometry" />
        </mxCell>
        <mxCell id="W6bvKB6GYxlx2QuhMemM-95" style="edgeStyle=orthogonalEdgeStyle;rounded=0;orthogonalLoop=1;jettySize=auto;html=1;exitX=0.5;exitY=1;exitDx=0;exitDy=0;entryX=0.5;entryY=0;entryDx=0;entryDy=0;fontFamily=Helvetica;fontSize=12;" parent="1" source="W6bvKB6GYxlx2QuhMemM-91" target="W6bvKB6GYxlx2QuhMemM-94" edge="1">
          <mxGeometry relative="1" as="geometry" />
        </mxCell>
        <mxCell id="W6bvKB6GYxlx2QuhMemM-91" value="&lt;span style=&quot;font-size: 12px;&quot;&gt;Ввести номер&lt;br&gt;ядра, у которого основание этого зала.&lt;/span&gt;" style="rounded=1;whiteSpace=wrap;html=1;" parent="1" vertex="1">
          <mxGeometry x="280" y="440" width="140" height="60" as="geometry" />
        </mxCell>
        <mxCell id="W6bvKB6GYxlx2QuhMemM-97" style="edgeStyle=orthogonalEdgeStyle;rounded=0;orthogonalLoop=1;jettySize=auto;html=1;exitX=0.5;exitY=1;exitDx=0;exitDy=0;entryX=0.5;entryY=0;entryDx=0;entryDy=0;fontFamily=Helvetica;fontSize=12;" parent="1" source="W6bvKB6GYxlx2QuhMemM-94" target="W6bvKB6GYxlx2QuhMemM-96" edge="1">
          <mxGeometry relative="1" as="geometry" />
        </mxCell>
        <mxCell id="W6bvKB6GYxlx2QuhMemM-94" value="1 или 2" style="ellipse;whiteSpace=wrap;html=1;aspect=fixed;" parent="1" vertex="1">
          <mxGeometry x="320" y="520" width="60" height="60" as="geometry" />
        </mxCell>
        <mxCell id="W6bvKB6GYxlx2QuhMemM-99" style="edgeStyle=orthogonalEdgeStyle;rounded=0;orthogonalLoop=1;jettySize=auto;html=1;exitX=0.5;exitY=1;exitDx=0;exitDy=0;entryX=0.5;entryY=0;entryDx=0;entryDy=0;fontFamily=Helvetica;fontSize=12;" parent="1" source="W6bvKB6GYxlx2QuhMemM-96" target="W6bvKB6GYxlx2QuhMemM-98" edge="1">
          <mxGeometry relative="1" as="geometry" />
        </mxCell>
        <mxCell id="W6bvKB6GYxlx2QuhMemM-96" value="ЧК: 9" style="rhombus;whiteSpace=wrap;html=1;" parent="1" vertex="1">
          <mxGeometry x="320" y="600" width="60" height="60" as="geometry" />
        </mxCell>
        <mxCell id="W6bvKB6GYxlx2QuhMemM-101" style="edgeStyle=orthogonalEdgeStyle;rounded=0;orthogonalLoop=1;jettySize=auto;html=1;exitX=0.5;exitY=1;exitDx=0;exitDy=0;entryX=0.5;entryY=0;entryDx=0;entryDy=0;fontFamily=Helvetica;fontSize=12;" parent="1" source="W6bvKB6GYxlx2QuhMemM-98" target="W6bvKB6GYxlx2QuhMemM-100" edge="1">
          <mxGeometry relative="1" as="geometry" />
        </mxCell>
        <mxCell id="W6bvKB6GYxlx2QuhMemM-98" value="Задание в COSPACES:&lt;br&gt;&lt;a href=&quot;https://edu.cospaces.io/KMD-ZEG&quot;&gt;https://edu.cospaces.io/KMD-ZEG&lt;/a&gt;" style="rounded=1;whiteSpace=wrap;html=1;" parent="1" vertex="1">
          <mxGeometry x="250" y="680" width="200" height="50" as="geometry" />
        </mxCell>
        <mxCell id="W6bvKB6GYxlx2QuhMemM-100" value="4948" style="ellipse;whiteSpace=wrap;html=1;aspect=fixed;" parent="1" vertex="1">
          <mxGeometry x="323" y="750" width="60" height="60" as="geometry" />
        </mxCell>
        <mxCell id="W6bvKB6GYxlx2QuhMemM-105" style="edgeStyle=orthogonalEdgeStyle;rounded=0;orthogonalLoop=1;jettySize=auto;html=1;exitX=0.5;exitY=1;exitDx=0;exitDy=0;entryX=0.5;entryY=0;entryDx=0;entryDy=0;fontFamily=Helvetica;fontSize=12;" parent="1" source="W6bvKB6GYxlx2QuhMemM-102" target="W6bvKB6GYxlx2QuhMemM-104" edge="1">
          <mxGeometry relative="1" as="geometry" />
        </mxCell>
        <mxCell id="W6bvKB6GYxlx2QuhMemM-102" value="&lt;span style=&quot;font-size: 12px;&quot;&gt;Ввести как называется этот транспортный хаб.&lt;/span&gt;" style="rounded=1;whiteSpace=wrap;html=1;" parent="1" vertex="1">
          <mxGeometry x="680" y="440" width="120" height="60" as="geometry" />
        </mxCell>
        <mxCell id="W6bvKB6GYxlx2QuhMemM-107" style="edgeStyle=orthogonalEdgeStyle;rounded=0;orthogonalLoop=1;jettySize=auto;html=1;exitX=0.5;exitY=1;exitDx=0;exitDy=0;entryX=0.5;entryY=0;entryDx=0;entryDy=0;fontFamily=Helvetica;fontSize=12;" parent="1" source="W6bvKB6GYxlx2QuhMemM-104" target="W6bvKB6GYxlx2QuhMemM-106" edge="1">
          <mxGeometry relative="1" as="geometry" />
        </mxCell>
        <mxCell id="W6bvKB6GYxlx2QuhMemM-104" value="~Орбион" style="ellipse;whiteSpace=wrap;html=1;aspect=fixed;" parent="1" vertex="1">
          <mxGeometry x="710" y="520" width="60" height="60" as="geometry" />
        </mxCell>
        <mxCell id="W6bvKB6GYxlx2QuhMemM-106" value="ЧК: 6" style="rhombus;whiteSpace=wrap;html=1;" parent="1" vertex="1">
          <mxGeometry x="710" y="600" width="60" height="60" as="geometry" />
        </mxCell>
        <mxCell id="W6bvKB6GYxlx2QuhMemM-111" style="edgeStyle=orthogonalEdgeStyle;rounded=0;orthogonalLoop=1;jettySize=auto;html=1;exitX=0.5;exitY=1;exitDx=0;exitDy=0;entryX=0.5;entryY=0;entryDx=0;entryDy=0;fontFamily=Helvetica;fontSize=12;" parent="1" source="W6bvKB6GYxlx2QuhMemM-108" target="W6bvKB6GYxlx2QuhMemM-110" edge="1">
          <mxGeometry relative="1" as="geometry" />
        </mxCell>
        <mxCell id="W6bvKB6GYxlx2QuhMemM-108" value="&lt;font style=&quot;font-size: 12px;&quot;&gt;Сфотографироваться с промоботом, отправить фото на почту:&amp;nbsp;&lt;a style=&quot;&quot; href=&quot;contact@inginium.ru&quot;&gt;contact@inginium.ru&lt;/a&gt;&lt;/font&gt;" style="rounded=1;whiteSpace=wrap;html=1;" parent="1" vertex="1">
          <mxGeometry x="470" y="440" width="180" height="60" as="geometry" />
        </mxCell>
        <mxCell id="W6bvKB6GYxlx2QuhMemM-113" style="edgeStyle=orthogonalEdgeStyle;rounded=0;orthogonalLoop=1;jettySize=auto;html=1;exitX=0.5;exitY=1;exitDx=0;exitDy=0;entryX=0.5;entryY=0;entryDx=0;entryDy=0;fontFamily=Helvetica;fontSize=12;" parent="1" source="W6bvKB6GYxlx2QuhMemM-110" target="W6bvKB6GYxlx2QuhMemM-112" edge="1">
          <mxGeometry relative="1" as="geometry" />
        </mxCell>
        <mxCell id="W6bvKB6GYxlx2QuhMemM-110" value="&lt;span style=&quot;font-size: 12px;&quot;&gt;Ввести имя робота&lt;/span&gt;" style="rounded=1;whiteSpace=wrap;html=1;" parent="1" vertex="1">
          <mxGeometry x="500" y="520" width="120" height="40" as="geometry" />
        </mxCell>
        <mxCell id="W6bvKB6GYxlx2QuhMemM-115" style="edgeStyle=orthogonalEdgeStyle;rounded=0;orthogonalLoop=1;jettySize=auto;html=1;exitX=0.5;exitY=1;exitDx=0;exitDy=0;entryX=0.5;entryY=0;entryDx=0;entryDy=0;fontFamily=Helvetica;fontSize=12;" parent="1" source="W6bvKB6GYxlx2QuhMemM-112" target="W6bvKB6GYxlx2QuhMemM-114" edge="1">
          <mxGeometry relative="1" as="geometry" />
        </mxCell>
        <mxCell id="W6bvKB6GYxlx2QuhMemM-112" value="~Промобот или ~Promobot" style="ellipse;whiteSpace=wrap;html=1;aspect=fixed;" parent="1" vertex="1">
          <mxGeometry x="520" y="585" width="80" height="80" as="geometry" />
        </mxCell>
        <mxCell id="W6bvKB6GYxlx2QuhMemM-114" value="ЧК: 5" style="rhombus;whiteSpace=wrap;html=1;" parent="1" vertex="1">
          <mxGeometry x="530" y="690" width="60" height="60" as="geometry" />
        </mxCell>
        <mxCell id="W6bvKB6GYxlx2QuhMemM-134" style="edgeStyle=orthogonalEdgeStyle;rounded=0;orthogonalLoop=1;jettySize=auto;html=1;exitX=0;exitY=0.5;exitDx=0;exitDy=0;entryX=1;entryY=0.5;entryDx=0;entryDy=0;fontFamily=Helvetica;fontSize=18;" parent="1" source="W6bvKB6GYxlx2QuhMemM-116" target="W6bvKB6GYxlx2QuhMemM-120" edge="1">
          <mxGeometry relative="1" as="geometry">
            <Array as="points">
              <mxPoint x="280" y="860" />
              <mxPoint x="280" y="920" />
            </Array>
          </mxGeometry>
        </mxCell>
        <mxCell id="W6bvKB6GYxlx2QuhMemM-135" style="edgeStyle=orthogonalEdgeStyle;rounded=0;orthogonalLoop=1;jettySize=auto;html=1;exitX=0;exitY=0.5;exitDx=0;exitDy=0;fontFamily=Helvetica;fontSize=18;entryX=1;entryY=0.5;entryDx=0;entryDy=0;" parent="1" source="W6bvKB6GYxlx2QuhMemM-116" target="W6bvKB6GYxlx2QuhMemM-121" edge="1">
          <mxGeometry relative="1" as="geometry">
            <mxPoint x="118" y="995" as="targetPoint" />
            <Array as="points">
              <mxPoint x="280" y="860" />
              <mxPoint x="280" y="920" />
              <mxPoint x="100" y="920" />
              <mxPoint x="100" y="980" />
            </Array>
          </mxGeometry>
        </mxCell>
        <mxCell id="W6bvKB6GYxlx2QuhMemM-136" style="edgeStyle=orthogonalEdgeStyle;rounded=0;orthogonalLoop=1;jettySize=auto;html=1;exitX=0;exitY=0.5;exitDx=0;exitDy=0;entryX=1;entryY=0.5;entryDx=0;entryDy=0;fontFamily=Helvetica;fontSize=18;" parent="1" source="W6bvKB6GYxlx2QuhMemM-116" target="W6bvKB6GYxlx2QuhMemM-122" edge="1">
          <mxGeometry relative="1" as="geometry">
            <Array as="points">
              <mxPoint x="280" y="860" />
              <mxPoint x="280" y="920" />
              <mxPoint x="100" y="920" />
              <mxPoint x="100" y="1040" />
            </Array>
          </mxGeometry>
        </mxCell>
        <mxCell id="W6bvKB6GYxlx2QuhMemM-137" style="edgeStyle=orthogonalEdgeStyle;rounded=0;orthogonalLoop=1;jettySize=auto;html=1;exitX=0;exitY=0.5;exitDx=0;exitDy=0;entryX=1;entryY=0.5;entryDx=0;entryDy=0;fontFamily=Helvetica;fontSize=18;" parent="1" source="W6bvKB6GYxlx2QuhMemM-116" target="W6bvKB6GYxlx2QuhMemM-123" edge="1">
          <mxGeometry relative="1" as="geometry">
            <Array as="points">
              <mxPoint x="280" y="860" />
              <mxPoint x="280" y="920" />
              <mxPoint x="100" y="920" />
              <mxPoint x="100" y="1100" />
            </Array>
          </mxGeometry>
        </mxCell>
        <mxCell id="W6bvKB6GYxlx2QuhMemM-116" value="Запрос кода, состоящего из частей кода в порядке их получения на каждом этапе" style="rounded=1;whiteSpace=wrap;html=1;" parent="1" vertex="1">
          <mxGeometry x="314" y="830" width="190" height="60" as="geometry" />
        </mxCell>
        <mxCell id="W6bvKB6GYxlx2QuhMemM-118" value="&lt;font style=&quot;font-size: 18px;&quot;&gt;Часть 2&lt;/font&gt;" style="rounded=1;whiteSpace=wrap;html=1;" parent="1" vertex="1">
          <mxGeometry x="720" y="835" width="90" height="50" as="geometry" />
        </mxCell>
        <mxCell id="W6bvKB6GYxlx2QuhMemM-120" value="8956" style="ellipse;whiteSpace=wrap;html=1;aspect=fixed;" parent="1" vertex="1">
          <mxGeometry x="20" y="895" width="50" height="50" as="geometry" />
        </mxCell>
        <mxCell id="W6bvKB6GYxlx2QuhMemM-121" value="9568" style="ellipse;whiteSpace=wrap;html=1;aspect=fixed;" parent="1" vertex="1">
          <mxGeometry x="20" y="955" width="50" height="50" as="geometry" />
        </mxCell>
        <mxCell id="W6bvKB6GYxlx2QuhMemM-122" value="5689" style="ellipse;whiteSpace=wrap;html=1;aspect=fixed;" parent="1" vertex="1">
          <mxGeometry x="20" y="1015" width="50" height="50" as="geometry" />
        </mxCell>
        <mxCell id="W6bvKB6GYxlx2QuhMemM-123" value="6895" style="ellipse;whiteSpace=wrap;html=1;aspect=fixed;" parent="1" vertex="1">
          <mxGeometry x="20" y="1075" width="50" height="50" as="geometry" />
        </mxCell>
        <mxCell id="W6bvKB6GYxlx2QuhMemM-124" value="&lt;font style=&quot;font-size: 18px;&quot;&gt;1&lt;/font&gt;" style="text;html=1;align=center;verticalAlign=middle;resizable=0;points=[];autosize=1;strokeColor=none;fillColor=none;fontSize=12;fontFamily=Helvetica;" parent="1" vertex="1">
          <mxGeometry x="70" y="80" width="30" height="40" as="geometry" />
        </mxCell>
        <mxCell id="W6bvKB6GYxlx2QuhMemM-125" value="&lt;span style=&quot;font-size: 18px;&quot;&gt;2&lt;/span&gt;" style="text;html=1;align=center;verticalAlign=middle;resizable=0;points=[];autosize=1;strokeColor=none;fillColor=none;fontSize=12;fontFamily=Helvetica;" parent="1" vertex="1">
          <mxGeometry x="70" y="150" width="30" height="40" as="geometry" />
        </mxCell>
        <mxCell id="W6bvKB6GYxlx2QuhMemM-127" value="&lt;span style=&quot;font-size: 18px;&quot;&gt;3&lt;/span&gt;" style="text;html=1;align=center;verticalAlign=middle;resizable=0;points=[];autosize=1;strokeColor=none;fillColor=none;fontSize=12;fontFamily=Helvetica;" parent="1" vertex="1">
          <mxGeometry x="70" y="220" width="30" height="40" as="geometry" />
        </mxCell>
        <mxCell id="W6bvKB6GYxlx2QuhMemM-128" value="&lt;span style=&quot;font-size: 18px;&quot;&gt;4&lt;/span&gt;" style="text;html=1;align=center;verticalAlign=middle;resizable=0;points=[];autosize=1;strokeColor=none;fillColor=none;fontSize=12;fontFamily=Helvetica;" parent="1" vertex="1">
          <mxGeometry x="70" y="290" width="30" height="40" as="geometry" />
        </mxCell>
        <mxCell id="W6bvKB6GYxlx2QuhMemM-130" value="&lt;span style=&quot;font-size: 18px;&quot;&gt;4&lt;/span&gt;" style="text;html=1;align=center;verticalAlign=middle;resizable=0;points=[];autosize=1;strokeColor=none;fillColor=none;fontSize=12;fontFamily=Helvetica;" parent="1" vertex="1">
          <mxGeometry x="70" y="1065" width="30" height="40" as="geometry" />
        </mxCell>
        <mxCell id="W6bvKB6GYxlx2QuhMemM-131" value="&lt;span style=&quot;font-size: 18px;&quot;&gt;1&lt;/span&gt;" style="text;html=1;align=center;verticalAlign=middle;resizable=0;points=[];autosize=1;strokeColor=none;fillColor=none;fontSize=12;fontFamily=Helvetica;" parent="1" vertex="1">
          <mxGeometry x="70" y="890" width="30" height="40" as="geometry" />
        </mxCell>
        <mxCell id="W6bvKB6GYxlx2QuhMemM-132" value="&lt;span style=&quot;font-size: 18px;&quot;&gt;2&lt;/span&gt;" style="text;html=1;align=center;verticalAlign=middle;resizable=0;points=[];autosize=1;strokeColor=none;fillColor=none;fontSize=12;fontFamily=Helvetica;" parent="1" vertex="1">
          <mxGeometry x="70" y="945" width="30" height="40" as="geometry" />
        </mxCell>
        <mxCell id="W6bvKB6GYxlx2QuhMemM-133" value="&lt;span style=&quot;font-size: 18px;&quot;&gt;3&lt;/span&gt;" style="text;html=1;align=center;verticalAlign=middle;resizable=0;points=[];autosize=1;strokeColor=none;fillColor=none;fontSize=12;fontFamily=Helvetica;" parent="1" vertex="1">
          <mxGeometry x="70" y="1005" width="30" height="40" as="geometry" />
        </mxCell>
        <mxCell id="W6bvKB6GYxlx2QuhMemM-138" value="Гр.1: 8956" style="swimlane;fontStyle=0;childLayout=stackLayout;horizontal=1;startSize=30;horizontalStack=0;resizeParent=1;resizeParentMax=0;resizeLast=0;collapsible=1;marginBottom=0;fontSize=14;" parent="1" vertex="1">
          <mxGeometry x="118" y="945" width="140" height="210" as="geometry">
            <mxRectangle x="390" y="55" width="70" height="30" as="alternateBounds" />
          </mxGeometry>
        </mxCell>
        <mxCell id="W6bvKB6GYxlx2QuhMemM-139" value="1: Картины AR " style="text;strokeColor=none;fillColor=none;align=left;verticalAlign=middle;spacingLeft=4;spacingRight=4;overflow=hidden;points=[[0,0.5],[1,0.5]];portConstraint=eastwest;rotatable=0;fontSize=14;" parent="W6bvKB6GYxlx2QuhMemM-138" vertex="1">
          <mxGeometry y="30" width="140" height="30" as="geometry" />
        </mxCell>
        <mxCell id="W6bvKB6GYxlx2QuhMemM-142" value="4: Правда или ложь" style="text;strokeColor=none;fillColor=none;align=left;verticalAlign=middle;spacingLeft=4;spacingRight=4;overflow=hidden;points=[[0,0.5],[1,0.5]];portConstraint=eastwest;rotatable=0;fontSize=14;" parent="W6bvKB6GYxlx2QuhMemM-138" vertex="1">
          <mxGeometry y="60" width="140" height="30" as="geometry" />
        </mxCell>
        <mxCell id="W6bvKB6GYxlx2QuhMemM-140" value="2: Hoversurf" style="text;strokeColor=none;fillColor=none;align=left;verticalAlign=middle;spacingLeft=4;spacingRight=4;overflow=hidden;points=[[0,0.5],[1,0.5]];portConstraint=eastwest;rotatable=0;fontSize=14;" parent="W6bvKB6GYxlx2QuhMemM-138" vertex="1">
          <mxGeometry y="90" width="140" height="30" as="geometry" />
        </mxCell>
        <mxCell id="W6bvKB6GYxlx2QuhMemM-141" value="3: OVISION" style="text;strokeColor=none;fillColor=none;align=left;verticalAlign=middle;spacingLeft=4;spacingRight=4;overflow=hidden;points=[[0,0.5],[1,0.5]];portConstraint=eastwest;rotatable=0;fontSize=14;" parent="W6bvKB6GYxlx2QuhMemM-138" vertex="1">
          <mxGeometry y="120" width="140" height="30" as="geometry" />
        </mxCell>
        <mxCell id="W6bvKB6GYxlx2QuhMemM-172" value="5: Моторика" style="text;strokeColor=none;fillColor=none;align=left;verticalAlign=middle;spacingLeft=4;spacingRight=4;overflow=hidden;points=[[0,0.5],[1,0.5]];portConstraint=eastwest;rotatable=0;fontSize=14;" parent="W6bvKB6GYxlx2QuhMemM-138" vertex="1">
          <mxGeometry y="150" width="140" height="30" as="geometry" />
        </mxCell>
        <mxCell id="W6bvKB6GYxlx2QuhMemM-173" value="6: Костюм AR" style="text;strokeColor=none;fillColor=none;align=left;verticalAlign=middle;spacingLeft=4;spacingRight=4;overflow=hidden;points=[[0,0.5],[1,0.5]];portConstraint=eastwest;rotatable=0;fontSize=14;" parent="W6bvKB6GYxlx2QuhMemM-138" vertex="1">
          <mxGeometry y="180" width="140" height="30" as="geometry" />
        </mxCell>
        <mxCell id="W6bvKB6GYxlx2QuhMemM-143" value="&lt;font style=&quot;font-size: 18px;&quot;&gt;Маршруты:&lt;/font&gt;" style="text;html=1;align=center;verticalAlign=middle;resizable=0;points=[];autosize=1;strokeColor=none;fillColor=none;fontSize=14;" parent="1" vertex="1">
          <mxGeometry x="354" y="905" width="120" height="40" as="geometry" />
        </mxCell>
        <mxCell id="W6bvKB6GYxlx2QuhMemM-145" value="Гр.2: 9568" style="swimlane;fontStyle=0;childLayout=stackLayout;horizontal=1;startSize=30;horizontalStack=0;resizeParent=1;resizeParentMax=0;resizeLast=0;collapsible=1;marginBottom=0;fontSize=14;" parent="1" vertex="1">
          <mxGeometry x="280" y="945" width="140" height="210" as="geometry">
            <mxRectangle x="390" y="55" width="70" height="30" as="alternateBounds" />
          </mxGeometry>
        </mxCell>
        <mxCell id="W6bvKB6GYxlx2QuhMemM-146" value="2: Hoversurf" style="text;strokeColor=none;fillColor=none;align=left;verticalAlign=middle;spacingLeft=4;spacingRight=4;overflow=hidden;points=[[0,0.5],[1,0.5]];portConstraint=eastwest;rotatable=0;fontSize=14;" parent="W6bvKB6GYxlx2QuhMemM-145" vertex="1">
          <mxGeometry y="30" width="140" height="30" as="geometry" />
        </mxCell>
        <mxCell id="W6bvKB6GYxlx2QuhMemM-147" value="3: OVISION" style="text;strokeColor=none;fillColor=none;align=left;verticalAlign=middle;spacingLeft=4;spacingRight=4;overflow=hidden;points=[[0,0.5],[1,0.5]];portConstraint=eastwest;rotatable=0;fontSize=14;" parent="W6bvKB6GYxlx2QuhMemM-145" vertex="1">
          <mxGeometry y="60" width="140" height="30" as="geometry" />
        </mxCell>
        <mxCell id="W6bvKB6GYxlx2QuhMemM-148" value="4: Правда или ложь" style="text;strokeColor=none;fillColor=none;align=left;verticalAlign=middle;spacingLeft=4;spacingRight=4;overflow=hidden;points=[[0,0.5],[1,0.5]];portConstraint=eastwest;rotatable=0;fontSize=14;" parent="W6bvKB6GYxlx2QuhMemM-145" vertex="1">
          <mxGeometry y="90" width="140" height="30" as="geometry" />
        </mxCell>
        <mxCell id="W6bvKB6GYxlx2QuhMemM-149" value="5: Моторика" style="text;strokeColor=none;fillColor=none;align=left;verticalAlign=middle;spacingLeft=4;spacingRight=4;overflow=hidden;points=[[0,0.5],[1,0.5]];portConstraint=eastwest;rotatable=0;fontSize=14;" parent="W6bvKB6GYxlx2QuhMemM-145" vertex="1">
          <mxGeometry y="120" width="140" height="30" as="geometry" />
        </mxCell>
        <mxCell id="W6bvKB6GYxlx2QuhMemM-174" value="6: Костюм AR" style="text;strokeColor=none;fillColor=none;align=left;verticalAlign=middle;spacingLeft=4;spacingRight=4;overflow=hidden;points=[[0,0.5],[1,0.5]];portConstraint=eastwest;rotatable=0;fontSize=14;" parent="W6bvKB6GYxlx2QuhMemM-145" vertex="1">
          <mxGeometry y="150" width="140" height="30" as="geometry" />
        </mxCell>
        <mxCell id="W6bvKB6GYxlx2QuhMemM-175" value="1: Картины AR" style="text;strokeColor=none;fillColor=none;align=left;verticalAlign=middle;spacingLeft=4;spacingRight=4;overflow=hidden;points=[[0,0.5],[1,0.5]];portConstraint=eastwest;rotatable=0;fontSize=14;" parent="W6bvKB6GYxlx2QuhMemM-145" vertex="1">
          <mxGeometry y="180" width="140" height="30" as="geometry" />
        </mxCell>
        <mxCell id="W6bvKB6GYxlx2QuhMemM-150" value="Гр.3: 5689" style="swimlane;fontStyle=0;childLayout=stackLayout;horizontal=1;startSize=30;horizontalStack=0;resizeParent=1;resizeParentMax=0;resizeLast=0;collapsible=1;marginBottom=0;fontSize=14;" parent="1" vertex="1">
          <mxGeometry x="439" y="945" width="140" height="210" as="geometry">
            <mxRectangle x="390" y="55" width="70" height="30" as="alternateBounds" />
          </mxGeometry>
        </mxCell>
        <mxCell id="W6bvKB6GYxlx2QuhMemM-151" value="3: OVISION" style="text;strokeColor=none;fillColor=none;align=left;verticalAlign=middle;spacingLeft=4;spacingRight=4;overflow=hidden;points=[[0,0.5],[1,0.5]];portConstraint=eastwest;rotatable=0;fontSize=14;" parent="W6bvKB6GYxlx2QuhMemM-150" vertex="1">
          <mxGeometry y="30" width="140" height="30" as="geometry" />
        </mxCell>
        <mxCell id="W6bvKB6GYxlx2QuhMemM-152" value="5: Моторика" style="text;strokeColor=none;fillColor=none;align=left;verticalAlign=middle;spacingLeft=4;spacingRight=4;overflow=hidden;points=[[0,0.5],[1,0.5]];portConstraint=eastwest;rotatable=0;fontSize=14;" parent="W6bvKB6GYxlx2QuhMemM-150" vertex="1">
          <mxGeometry y="60" width="140" height="30" as="geometry" />
        </mxCell>
        <mxCell id="W6bvKB6GYxlx2QuhMemM-153" value="1: Картины AR" style="text;strokeColor=none;fillColor=none;align=left;verticalAlign=middle;spacingLeft=4;spacingRight=4;overflow=hidden;points=[[0,0.5],[1,0.5]];portConstraint=eastwest;rotatable=0;fontSize=14;" parent="W6bvKB6GYxlx2QuhMemM-150" vertex="1">
          <mxGeometry y="90" width="140" height="30" as="geometry" />
        </mxCell>
        <mxCell id="W6bvKB6GYxlx2QuhMemM-154" value="6: Костюм AR" style="text;strokeColor=none;fillColor=none;align=left;verticalAlign=middle;spacingLeft=4;spacingRight=4;overflow=hidden;points=[[0,0.5],[1,0.5]];portConstraint=eastwest;rotatable=0;fontSize=14;" parent="W6bvKB6GYxlx2QuhMemM-150" vertex="1">
          <mxGeometry y="120" width="140" height="30" as="geometry" />
        </mxCell>
        <mxCell id="W6bvKB6GYxlx2QuhMemM-176" value="4: Правда или ложь" style="text;strokeColor=none;fillColor=none;align=left;verticalAlign=middle;spacingLeft=4;spacingRight=4;overflow=hidden;points=[[0,0.5],[1,0.5]];portConstraint=eastwest;rotatable=0;fontSize=14;" parent="W6bvKB6GYxlx2QuhMemM-150" vertex="1">
          <mxGeometry y="150" width="140" height="30" as="geometry" />
        </mxCell>
        <mxCell id="W6bvKB6GYxlx2QuhMemM-177" value="2: Hoversurf" style="text;strokeColor=none;fillColor=none;align=left;verticalAlign=middle;spacingLeft=4;spacingRight=4;overflow=hidden;points=[[0,0.5],[1,0.5]];portConstraint=eastwest;rotatable=0;fontSize=14;" parent="W6bvKB6GYxlx2QuhMemM-150" vertex="1">
          <mxGeometry y="180" width="140" height="30" as="geometry" />
        </mxCell>
        <mxCell id="W6bvKB6GYxlx2QuhMemM-155" value="Гр.4: 6895" style="swimlane;fontStyle=0;childLayout=stackLayout;horizontal=1;startSize=30;horizontalStack=0;resizeParent=1;resizeParentMax=0;resizeLast=0;collapsible=1;marginBottom=0;fontSize=14;" parent="1" vertex="1">
          <mxGeometry x="600" y="945" width="140" height="210" as="geometry">
            <mxRectangle x="390" y="55" width="70" height="30" as="alternateBounds" />
          </mxGeometry>
        </mxCell>
        <mxCell id="W6bvKB6GYxlx2QuhMemM-156" value="5: Моторика" style="text;strokeColor=none;fillColor=none;align=left;verticalAlign=middle;spacingLeft=4;spacingRight=4;overflow=hidden;points=[[0,0.5],[1,0.5]];portConstraint=eastwest;rotatable=0;fontSize=14;" parent="W6bvKB6GYxlx2QuhMemM-155" vertex="1">
          <mxGeometry y="30" width="140" height="30" as="geometry" />
        </mxCell>
        <mxCell id="W6bvKB6GYxlx2QuhMemM-157" value="1: Картины AR" style="text;strokeColor=none;fillColor=none;align=left;verticalAlign=middle;spacingLeft=4;spacingRight=4;overflow=hidden;points=[[0,0.5],[1,0.5]];portConstraint=eastwest;rotatable=0;fontSize=14;" parent="W6bvKB6GYxlx2QuhMemM-155" vertex="1">
          <mxGeometry y="60" width="140" height="30" as="geometry" />
        </mxCell>
        <mxCell id="W6bvKB6GYxlx2QuhMemM-158" value="6: Костюм AR" style="text;strokeColor=none;fillColor=none;align=left;verticalAlign=middle;spacingLeft=4;spacingRight=4;overflow=hidden;points=[[0,0.5],[1,0.5]];portConstraint=eastwest;rotatable=0;fontSize=14;" parent="W6bvKB6GYxlx2QuhMemM-155" vertex="1">
          <mxGeometry y="90" width="140" height="30" as="geometry" />
        </mxCell>
        <mxCell id="W6bvKB6GYxlx2QuhMemM-159" value="2: Hoversurf" style="text;strokeColor=none;fillColor=none;align=left;verticalAlign=middle;spacingLeft=4;spacingRight=4;overflow=hidden;points=[[0,0.5],[1,0.5]];portConstraint=eastwest;rotatable=0;fontSize=14;" parent="W6bvKB6GYxlx2QuhMemM-155" vertex="1">
          <mxGeometry y="120" width="140" height="30" as="geometry" />
        </mxCell>
        <mxCell id="W6bvKB6GYxlx2QuhMemM-178" value="3: OVISION" style="text;strokeColor=none;fillColor=none;align=left;verticalAlign=middle;spacingLeft=4;spacingRight=4;overflow=hidden;points=[[0,0.5],[1,0.5]];portConstraint=eastwest;rotatable=0;fontSize=14;" parent="W6bvKB6GYxlx2QuhMemM-155" vertex="1">
          <mxGeometry y="150" width="140" height="30" as="geometry" />
        </mxCell>
        <mxCell id="W6bvKB6GYxlx2QuhMemM-179" value="4: Правда или ложь" style="text;strokeColor=none;fillColor=none;align=left;verticalAlign=middle;spacingLeft=4;spacingRight=4;overflow=hidden;points=[[0,0.5],[1,0.5]];portConstraint=eastwest;rotatable=0;fontSize=14;" parent="W6bvKB6GYxlx2QuhMemM-155" vertex="1">
          <mxGeometry y="180" width="140" height="30" as="geometry" />
        </mxCell>
        <mxCell id="W6bvKB6GYxlx2QuhMemM-188" value="В функции роутинга" style="swimlane;fontStyle=0;childLayout=stackLayout;horizontal=1;startSize=30;horizontalStack=0;resizeParent=1;resizeParentMax=0;resizeLast=0;collapsible=1;marginBottom=0;fontSize=14;" parent="1" vertex="1" collapsed="1">
          <mxGeometry x="329" y="310" width="170" height="30" as="geometry">
            <mxRectangle x="770" y="120" width="170" height="180" as="alternateBounds" />
          </mxGeometry>
        </mxCell>
        <mxCell id="W6bvKB6GYxlx2QuhMemM-189" value="1: Малевич" style="text;strokeColor=none;fillColor=none;align=left;verticalAlign=middle;spacingLeft=4;spacingRight=4;overflow=hidden;points=[[0,0.5],[1,0.5]];portConstraint=eastwest;rotatable=0;fontSize=14;" parent="W6bvKB6GYxlx2QuhMemM-188" vertex="1">
          <mxGeometry y="30" width="170" height="30" as="geometry" />
        </mxCell>
        <mxCell id="W6bvKB6GYxlx2QuhMemM-190" value="2: Казан" style="text;strokeColor=none;fillColor=none;align=left;verticalAlign=middle;spacingLeft=4;spacingRight=4;overflow=hidden;points=[[0,0.5],[1,0.5]];portConstraint=eastwest;rotatable=0;fontSize=14;" parent="W6bvKB6GYxlx2QuhMemM-188" vertex="1">
          <mxGeometry y="60" width="170" height="30" as="geometry" />
        </mxCell>
        <mxCell id="W6bvKB6GYxlx2QuhMemM-191" value="3: Промобот" style="text;strokeColor=none;fillColor=none;align=left;verticalAlign=middle;spacingLeft=4;spacingRight=4;overflow=hidden;points=[[0,0.5],[1,0.5]];portConstraint=eastwest;rotatable=0;fontSize=14;" parent="W6bvKB6GYxlx2QuhMemM-188" vertex="1">
          <mxGeometry y="90" width="170" height="30" as="geometry" />
        </mxCell>
        <mxCell id="W6bvKB6GYxlx2QuhMemM-192" value="4: Орбион" style="text;strokeColor=none;fillColor=none;align=left;verticalAlign=middle;spacingLeft=4;spacingRight=4;overflow=hidden;points=[[0,0.5],[1,0.5]];portConstraint=eastwest;rotatable=0;fontSize=14;" parent="W6bvKB6GYxlx2QuhMemM-188" vertex="1">
          <mxGeometry y="120" width="170" height="30" as="geometry" />
        </mxCell>
        <mxCell id="W6bvKB6GYxlx2QuhMemM-193" value="0: Финал" style="text;strokeColor=none;fillColor=none;align=left;verticalAlign=middle;spacingLeft=4;spacingRight=4;overflow=hidden;points=[[0,0.5],[1,0.5]];portConstraint=eastwest;rotatable=0;fontSize=14;" parent="W6bvKB6GYxlx2QuhMemM-188" vertex="1">
          <mxGeometry y="150" width="170" height="30" as="geometry" />
        </mxCell>
        <mxCell id="W6bvKB6GYxlx2QuhMemM-194" style="edgeStyle=orthogonalEdgeStyle;rounded=0;orthogonalLoop=1;jettySize=auto;html=1;exitX=0.5;exitY=1;exitDx=0;exitDy=0;entryX=0.5;entryY=0;entryDx=0;entryDy=0;fontSize=12;" parent="1" source="W6bvKB6GYxlx2QuhMemM-195" target="W6bvKB6GYxlx2QuhMemM-197" edge="1">
          <mxGeometry relative="1" as="geometry" />
        </mxCell>
        <mxCell id="W6bvKB6GYxlx2QuhMemM-195" value="*&lt;span style=&quot;font-size: 14px; text-align: left;&quot;&gt;Howversurf&lt;/span&gt;" style="rounded=1;whiteSpace=wrap;html=1;" parent="1" vertex="1">
          <mxGeometry x="184" y="1240" width="120" height="60" as="geometry" />
        </mxCell>
        <mxCell id="W6bvKB6GYxlx2QuhMemM-196" style="edgeStyle=orthogonalEdgeStyle;rounded=0;orthogonalLoop=1;jettySize=auto;html=1;exitX=0.5;exitY=1;exitDx=0;exitDy=0;entryX=0.5;entryY=0;entryDx=0;entryDy=0;fontSize=12;" parent="1" source="W6bvKB6GYxlx2QuhMemM-197" target="W6bvKB6GYxlx2QuhMemM-207" edge="1">
          <mxGeometry relative="1" as="geometry">
            <mxPoint x="241.75" y="1474.5" as="targetPoint" />
          </mxGeometry>
        </mxCell>
        <mxCell id="W6bvKB6GYxlx2QuhMemM-197" value="&lt;span style=&quot;font-size: 12px;&quot;&gt;Написать название проекта летающих мотоциклов.&lt;/span&gt;" style="rounded=1;whiteSpace=wrap;html=1;" parent="1" vertex="1">
          <mxGeometry x="184" y="1360" width="120" height="60" as="geometry" />
        </mxCell>
        <mxCell id="W6bvKB6GYxlx2QuhMemM-209" style="edgeStyle=orthogonalEdgeStyle;rounded=0;orthogonalLoop=1;jettySize=auto;html=1;exitX=0.5;exitY=1;exitDx=0;exitDy=0;entryX=0.5;entryY=0;entryDx=0;entryDy=0;fontFamily=Helvetica;fontSize=18;" parent="1" source="W6bvKB6GYxlx2QuhMemM-207" target="W6bvKB6GYxlx2QuhMemM-214" edge="1">
          <mxGeometry relative="1" as="geometry">
            <mxPoint x="244" y="1570" as="targetPoint" />
            <Array as="points" />
          </mxGeometry>
        </mxCell>
        <mxCell id="W6bvKB6GYxlx2QuhMemM-207" value="~HOVERSURF" style="ellipse;whiteSpace=wrap;html=1;aspect=fixed;" parent="1" vertex="1">
          <mxGeometry x="214" y="1460" width="60" height="60" as="geometry" />
        </mxCell>
        <mxCell id="W6bvKB6GYxlx2QuhMemM-215" style="edgeStyle=orthogonalEdgeStyle;rounded=0;orthogonalLoop=1;jettySize=auto;html=1;exitX=0.5;exitY=1;exitDx=0;exitDy=0;entryX=0.5;entryY=0;entryDx=0;entryDy=0;fontFamily=Helvetica;fontSize=18;" parent="1" source="W6bvKB6GYxlx2QuhMemM-214" target="W6bvKB6GYxlx2QuhMemM-220" edge="1">
          <mxGeometry relative="1" as="geometry">
            <mxPoint x="244" y="1650" as="targetPoint" />
          </mxGeometry>
        </mxCell>
        <mxCell id="W6bvKB6GYxlx2QuhMemM-214" value="Задание в COSPACES:&lt;div&gt;&lt;a href=&quot;https://edu.cospaces.io/QEW-HYM&quot;&gt;https://edu.cospaces.io/QEW-HYM&lt;/a&gt;&lt;br&gt;&lt;/div&gt;" style="rounded=1;whiteSpace=wrap;html=1;" parent="1" vertex="1">
          <mxGeometry x="141" y="1560" width="206" height="50" as="geometry" />
        </mxCell>
        <mxCell id="W6bvKB6GYxlx2QuhMemM-223" style="edgeStyle=orthogonalEdgeStyle;rounded=0;orthogonalLoop=1;jettySize=auto;html=1;exitX=0.5;exitY=1;exitDx=0;exitDy=0;entryX=0.5;entryY=0;entryDx=0;entryDy=0;fontFamily=Helvetica;fontSize=18;" parent="1" source="W6bvKB6GYxlx2QuhMemM-220" target="W6bvKB6GYxlx2QuhMemM-222" edge="1">
          <mxGeometry relative="1" as="geometry">
            <mxPoint x="244" y="1730" as="targetPoint" />
          </mxGeometry>
        </mxCell>
        <mxCell id="W6bvKB6GYxlx2QuhMemM-220" value="2354" style="ellipse;whiteSpace=wrap;html=1;aspect=fixed;" parent="1" vertex="1">
          <mxGeometry x="214" y="1630" width="60" height="60" as="geometry" />
        </mxCell>
        <mxCell id="W6bvKB6GYxlx2QuhMemM-246" style="edgeStyle=orthogonalEdgeStyle;rounded=0;orthogonalLoop=1;jettySize=auto;html=1;exitX=0.5;exitY=1;exitDx=0;exitDy=0;entryX=0.5;entryY=0;entryDx=0;entryDy=0;fontFamily=Helvetica;fontSize=12;" parent="1" source="W6bvKB6GYxlx2QuhMemM-222" target="W6bvKB6GYxlx2QuhMemM-226" edge="1">
          <mxGeometry relative="1" as="geometry">
            <mxPoint x="244" y="1790" as="sourcePoint" />
          </mxGeometry>
        </mxCell>
        <mxCell id="W6bvKB6GYxlx2QuhMemM-222" value="Написать год разрешения перемещения беспилотным автомобилям:&lt;br&gt;&amp;nbsp;&lt;a href=&quot;https://www.youtube.com/men3i3SFiZM&quot;&gt;https://www.youtube.com/men3i3SFiZM&lt;/a&gt;" style="rounded=1;whiteSpace=wrap;html=1;" parent="1" vertex="1">
          <mxGeometry x="123.5" y="1710" width="241" height="60" as="geometry" />
        </mxCell>
        <mxCell id="W6bvKB6GYxlx2QuhMemM-248" style="edgeStyle=orthogonalEdgeStyle;rounded=0;orthogonalLoop=1;jettySize=auto;html=1;exitX=0.5;exitY=1;exitDx=0;exitDy=0;entryX=0.5;entryY=0;entryDx=0;entryDy=0;fontFamily=Helvetica;fontSize=12;" parent="1" source="W6bvKB6GYxlx2QuhMemM-226" target="W6bvKB6GYxlx2QuhMemM-247" edge="1">
          <mxGeometry relative="1" as="geometry" />
        </mxCell>
        <mxCell id="W6bvKB6GYxlx2QuhMemM-226" value="2021" style="ellipse;whiteSpace=wrap;html=1;aspect=fixed;" parent="1" vertex="1">
          <mxGeometry x="214" y="1795" width="60" height="60" as="geometry" />
        </mxCell>
        <mxCell id="W6bvKB6GYxlx2QuhMemM-239" value="~Термо Глас" style="ellipse;whiteSpace=wrap;html=1;aspect=fixed;" parent="1" vertex="1">
          <mxGeometry x="214" y="1950" width="60" height="60" as="geometry" />
        </mxCell>
        <mxCell id="W6bvKB6GYxlx2QuhMemM-249" style="edgeStyle=orthogonalEdgeStyle;rounded=0;orthogonalLoop=1;jettySize=auto;html=1;exitX=0.5;exitY=1;exitDx=0;exitDy=0;entryX=0.5;entryY=0;entryDx=0;entryDy=0;fontFamily=Helvetica;fontSize=12;" parent="1" source="W6bvKB6GYxlx2QuhMemM-247" target="W6bvKB6GYxlx2QuhMemM-239" edge="1">
          <mxGeometry relative="1" as="geometry">
            <mxPoint x="244" y="1960" as="targetPoint" />
          </mxGeometry>
        </mxCell>
        <mxCell id="W6bvKB6GYxlx2QuhMemM-247" value="&lt;font style=&quot;font-size: 12px;&quot;&gt;Найти в капсуле особое стекло.&lt;/font&gt;" style="rounded=1;whiteSpace=wrap;html=1;" parent="1" vertex="1">
          <mxGeometry x="184" y="1880" width="120" height="50" as="geometry" />
        </mxCell>
        <mxCell id="W6bvKB6GYxlx2QuhMemM-254" style="edgeStyle=orthogonalEdgeStyle;rounded=0;orthogonalLoop=1;jettySize=auto;html=1;exitX=0.5;exitY=1;exitDx=0;exitDy=0;entryX=0.5;entryY=0;entryDx=0;entryDy=0;fontFamily=Helvetica;fontSize=12;" parent="1" source="W6bvKB6GYxlx2QuhMemM-250" target="W6bvKB6GYxlx2QuhMemM-251" edge="1">
          <mxGeometry relative="1" as="geometry" />
        </mxCell>
        <mxCell id="W6bvKB6GYxlx2QuhMemM-250" value="*Картины AR" style="rounded=1;whiteSpace=wrap;html=1;" parent="1" vertex="1">
          <mxGeometry x="30" y="1240" width="120" height="60" as="geometry" />
        </mxCell>
        <mxCell id="W6bvKB6GYxlx2QuhMemM-253" style="edgeStyle=orthogonalEdgeStyle;rounded=0;orthogonalLoop=1;jettySize=auto;html=1;exitX=0.5;exitY=1;exitDx=0;exitDy=0;entryX=0.5;entryY=0;entryDx=0;entryDy=0;fontFamily=Helvetica;fontSize=12;" parent="1" source="W6bvKB6GYxlx2QuhMemM-251" target="W6bvKB6GYxlx2QuhMemM-252" edge="1">
          <mxGeometry relative="1" as="geometry" />
        </mxCell>
        <mxCell id="W6bvKB6GYxlx2QuhMemM-251" value="&lt;span style=&quot;font-size: 12px;&quot;&gt;Ввести название картины с историей.&lt;/span&gt;" style="rounded=1;whiteSpace=wrap;html=1;" parent="1" vertex="1">
          <mxGeometry x="30" y="1320" width="120" height="50" as="geometry" />
        </mxCell>
        <mxCell id="W6bvKB6GYxlx2QuhMemM-256" style="edgeStyle=orthogonalEdgeStyle;rounded=0;orthogonalLoop=1;jettySize=auto;html=1;exitX=0.5;exitY=1;exitDx=0;exitDy=0;entryX=0.5;entryY=0;entryDx=0;entryDy=0;fontFamily=Helvetica;fontSize=12;" parent="1" source="W6bvKB6GYxlx2QuhMemM-252" target="W6bvKB6GYxlx2QuhMemM-255" edge="1">
          <mxGeometry relative="1" as="geometry" />
        </mxCell>
        <mxCell id="W6bvKB6GYxlx2QuhMemM-252" value="~Окно в прошлое" style="ellipse;whiteSpace=wrap;html=1;aspect=fixed;" parent="1" vertex="1">
          <mxGeometry x="60" y="1390" width="60" height="60" as="geometry" />
        </mxCell>
        <mxCell id="W6bvKB6GYxlx2QuhMemM-258" style="edgeStyle=orthogonalEdgeStyle;rounded=0;orthogonalLoop=1;jettySize=auto;html=1;exitX=0.5;exitY=1;exitDx=0;exitDy=0;entryX=0.5;entryY=0;entryDx=0;entryDy=0;fontFamily=Helvetica;fontSize=12;" parent="1" source="W6bvKB6GYxlx2QuhMemM-255" target="W6bvKB6GYxlx2QuhMemM-257" edge="1">
          <mxGeometry relative="1" as="geometry" />
        </mxCell>
        <mxCell id="W6bvKB6GYxlx2QuhMemM-255" value="&lt;span style=&quot;font-size: 12px;&quot;&gt;Ввести название картины со спрятавшимся другом доктора.&lt;/span&gt;" style="rounded=1;whiteSpace=wrap;html=1;" parent="1" vertex="1">
          <mxGeometry x="30" y="1470" width="120" height="70" as="geometry" />
        </mxCell>
        <mxCell id="W6bvKB6GYxlx2QuhMemM-257" value="~Физика света" style="ellipse;whiteSpace=wrap;html=1;aspect=fixed;" parent="1" vertex="1">
          <mxGeometry x="60" y="1560" width="60" height="60" as="geometry" />
        </mxCell>
        <mxCell id="W6bvKB6GYxlx2QuhMemM-181" value="В функции роутинга" style="swimlane;fontStyle=0;childLayout=stackLayout;horizontal=1;startSize=30;horizontalStack=0;resizeParent=1;resizeParentMax=0;resizeLast=0;collapsible=1;marginBottom=0;fontSize=14;" parent="1" vertex="1" collapsed="1">
          <mxGeometry x="329" y="1190" width="170" height="30" as="geometry">
            <mxRectangle x="300" y="1190" width="170" height="210" as="alternateBounds" />
          </mxGeometry>
        </mxCell>
        <mxCell id="W6bvKB6GYxlx2QuhMemM-182" value="№1: Картины AR " style="text;strokeColor=none;fillColor=none;align=left;verticalAlign=middle;spacingLeft=4;spacingRight=4;overflow=hidden;points=[[0,0.5],[1,0.5]];portConstraint=eastwest;rotatable=0;fontSize=14;" parent="W6bvKB6GYxlx2QuhMemM-181" vertex="1">
          <mxGeometry y="30" width="170" height="30" as="geometry" />
        </mxCell>
        <mxCell id="W6bvKB6GYxlx2QuhMemM-183" value="№2: Hoversurf" style="text;strokeColor=none;fillColor=none;align=left;verticalAlign=middle;spacingLeft=4;spacingRight=4;overflow=hidden;points=[[0,0.5],[1,0.5]];portConstraint=eastwest;rotatable=0;fontSize=14;" parent="W6bvKB6GYxlx2QuhMemM-181" vertex="1">
          <mxGeometry y="60" width="170" height="30" as="geometry" />
        </mxCell>
        <mxCell id="W6bvKB6GYxlx2QuhMemM-184" value="№3: OVISION" style="text;strokeColor=none;fillColor=none;align=left;verticalAlign=middle;spacingLeft=4;spacingRight=4;overflow=hidden;points=[[0,0.5],[1,0.5]];portConstraint=eastwest;rotatable=0;fontSize=14;" parent="W6bvKB6GYxlx2QuhMemM-181" vertex="1">
          <mxGeometry y="90" width="170" height="30" as="geometry" />
        </mxCell>
        <mxCell id="W6bvKB6GYxlx2QuhMemM-185" value="№4: Правда или ложь" style="text;strokeColor=none;fillColor=none;align=left;verticalAlign=middle;spacingLeft=4;spacingRight=4;overflow=hidden;points=[[0,0.5],[1,0.5]];portConstraint=eastwest;rotatable=0;fontSize=14;" parent="W6bvKB6GYxlx2QuhMemM-181" vertex="1">
          <mxGeometry y="120" width="170" height="30" as="geometry" />
        </mxCell>
        <mxCell id="W6bvKB6GYxlx2QuhMemM-186" value="№5: Моторика" style="text;strokeColor=none;fillColor=none;align=left;verticalAlign=middle;spacingLeft=4;spacingRight=4;overflow=hidden;points=[[0,0.5],[1,0.5]];portConstraint=eastwest;rotatable=0;fontSize=14;" parent="W6bvKB6GYxlx2QuhMemM-181" vertex="1">
          <mxGeometry y="150" width="170" height="30" as="geometry" />
        </mxCell>
        <mxCell id="W6bvKB6GYxlx2QuhMemM-187" value="№6: Костюм AR" style="text;strokeColor=none;fillColor=none;align=left;verticalAlign=middle;spacingLeft=4;spacingRight=4;overflow=hidden;points=[[0,0.5],[1,0.5]];portConstraint=eastwest;rotatable=0;fontSize=14;" parent="W6bvKB6GYxlx2QuhMemM-181" vertex="1">
          <mxGeometry y="180" width="170" height="30" as="geometry" />
        </mxCell>
        <mxCell id="W6bvKB6GYxlx2QuhMemM-261" style="edgeStyle=orthogonalEdgeStyle;rounded=0;orthogonalLoop=1;jettySize=auto;html=1;exitX=0.5;exitY=1;exitDx=0;exitDy=0;entryX=0.5;entryY=0;entryDx=0;entryDy=0;fontFamily=Helvetica;fontSize=12;" parent="1" source="W6bvKB6GYxlx2QuhMemM-259" target="W6bvKB6GYxlx2QuhMemM-260" edge="1">
          <mxGeometry relative="1" as="geometry" />
        </mxCell>
        <mxCell id="W6bvKB6GYxlx2QuhMemM-259" value="&lt;span style=&quot;font-size: 14px; text-align: left;&quot;&gt;*OVISION&lt;/span&gt;" style="rounded=1;whiteSpace=wrap;html=1;" parent="1" vertex="1">
          <mxGeometry x="405" y="1240" width="120" height="60" as="geometry" />
        </mxCell>
        <mxCell id="W6bvKB6GYxlx2QuhMemM-263" style="edgeStyle=orthogonalEdgeStyle;rounded=0;orthogonalLoop=1;jettySize=auto;html=1;exitX=0.5;exitY=1;exitDx=0;exitDy=0;entryX=0.5;entryY=0;entryDx=0;entryDy=0;fontFamily=Helvetica;fontSize=12;" parent="1" source="W6bvKB6GYxlx2QuhMemM-260" target="W6bvKB6GYxlx2QuhMemM-262" edge="1">
          <mxGeometry relative="1" as="geometry" />
        </mxCell>
        <mxCell id="W6bvKB6GYxlx2QuhMemM-260" value="&lt;span style=&quot;font-size: 12px;&quot;&gt;Ввести код терминала лаборатории.&lt;/span&gt;" style="rounded=1;whiteSpace=wrap;html=1;" parent="1" vertex="1">
          <mxGeometry x="405" y="1320" width="120" height="60" as="geometry" />
        </mxCell>
        <mxCell id="W6bvKB6GYxlx2QuhMemM-265" style="edgeStyle=orthogonalEdgeStyle;rounded=0;orthogonalLoop=1;jettySize=auto;html=1;exitX=0.5;exitY=1;exitDx=0;exitDy=0;entryX=0.5;entryY=0;entryDx=0;entryDy=0;fontFamily=Helvetica;fontSize=12;" parent="1" source="W6bvKB6GYxlx2QuhMemM-262" target="W6bvKB6GYxlx2QuhMemM-264" edge="1">
          <mxGeometry relative="1" as="geometry" />
        </mxCell>
        <mxCell id="W6bvKB6GYxlx2QuhMemM-262" value="6776" style="ellipse;whiteSpace=wrap;html=1;aspect=fixed;" parent="1" vertex="1">
          <mxGeometry x="435" y="1400" width="60" height="60" as="geometry" />
        </mxCell>
        <mxCell id="W6bvKB6GYxlx2QuhMemM-267" style="edgeStyle=orthogonalEdgeStyle;rounded=0;orthogonalLoop=1;jettySize=auto;html=1;exitX=0.5;exitY=1;exitDx=0;exitDy=0;fontFamily=Helvetica;fontSize=12;" parent="1" source="W6bvKB6GYxlx2QuhMemM-264" target="W6bvKB6GYxlx2QuhMemM-266" edge="1">
          <mxGeometry relative="1" as="geometry" />
        </mxCell>
        <mxCell id="W6bvKB6GYxlx2QuhMemM-264" value="Задание в COSPACES:&lt;div&gt;&lt;a href=&quot;https://edu.cospaces.io/MUU-QPK&quot;&gt;https://edu.cospaces.io/MUU-QPK&lt;/a&gt;&lt;br&gt;&lt;/div&gt;" style="rounded=1;whiteSpace=wrap;html=1;" parent="1" vertex="1">
          <mxGeometry x="365" y="1480" width="200" height="50" as="geometry" />
        </mxCell>
        <mxCell id="W6bvKB6GYxlx2QuhMemM-271" style="edgeStyle=orthogonalEdgeStyle;rounded=0;orthogonalLoop=1;jettySize=auto;html=1;exitX=0.5;exitY=1;exitDx=0;exitDy=0;entryX=0.5;entryY=0;entryDx=0;entryDy=0;fontFamily=Helvetica;fontSize=12;" parent="1" source="W6bvKB6GYxlx2QuhMemM-266" target="W6bvKB6GYxlx2QuhMemM-268" edge="1">
          <mxGeometry relative="1" as="geometry" />
        </mxCell>
        <mxCell id="W6bvKB6GYxlx2QuhMemM-266" value="1980" style="ellipse;whiteSpace=wrap;html=1;aspect=fixed;" parent="1" vertex="1">
          <mxGeometry x="435" y="1550" width="60" height="60" as="geometry" />
        </mxCell>
        <mxCell id="W6bvKB6GYxlx2QuhMemM-270" style="edgeStyle=orthogonalEdgeStyle;rounded=0;orthogonalLoop=1;jettySize=auto;html=1;exitX=0.5;exitY=1;exitDx=0;exitDy=0;entryX=0.5;entryY=0;entryDx=0;entryDy=0;fontFamily=Helvetica;fontSize=12;" parent="1" source="W6bvKB6GYxlx2QuhMemM-268" target="W6bvKB6GYxlx2QuhMemM-269" edge="1">
          <mxGeometry relative="1" as="geometry" />
        </mxCell>
        <mxCell id="W6bvKB6GYxlx2QuhMemM-268" value="Ввести на каком расстонии &lt;br&gt;рерминал может распознавать лица:&lt;br&gt;&amp;nbsp;&lt;a href=&quot;https://www.youtube.com/men3i3SFiZM&quot;&gt;https://www.youtube.com/men3i3SFiZM&lt;/a&gt;" style="rounded=1;whiteSpace=wrap;html=1;" parent="1" vertex="1">
          <mxGeometry x="350" y="1630" width="230" height="60" as="geometry" />
        </mxCell>
        <mxCell id="W6bvKB6GYxlx2QuhMemM-269" value="2" style="ellipse;whiteSpace=wrap;html=1;aspect=fixed;" parent="1" vertex="1">
          <mxGeometry x="435" y="1710" width="60" height="60" as="geometry" />
        </mxCell>
        <mxCell id="W6bvKB6GYxlx2QuhMemM-313" style="edgeStyle=orthogonalEdgeStyle;rounded=0;orthogonalLoop=1;jettySize=auto;html=1;exitX=0.5;exitY=1;exitDx=0;exitDy=0;entryX=0.5;entryY=0;entryDx=0;entryDy=0;fontFamily=Helvetica;fontSize=12;fontColor=default;" parent="1" source="W6bvKB6GYxlx2QuhMemM-274" target="W6bvKB6GYxlx2QuhMemM-275" edge="1">
          <mxGeometry relative="1" as="geometry" />
        </mxCell>
        <mxCell id="W6bvKB6GYxlx2QuhMemM-274" value="&lt;span style=&quot;font-size: 14px; text-align: left;&quot;&gt;*&lt;/span&gt;&lt;span style=&quot;font-size: 14px; text-align: left; background-color: initial;&quot;&gt;Правда или ложь&lt;/span&gt;" style="rounded=1;whiteSpace=wrap;html=1;" parent="1" vertex="1">
          <mxGeometry x="354" y="1940" width="120" height="60" as="geometry" />
        </mxCell>
        <mxCell id="vzvT4Ysu0SMiPI9dVD0g-5" style="edgeStyle=orthogonalEdgeStyle;rounded=0;orthogonalLoop=1;jettySize=auto;html=1;exitX=1;exitY=0.5;exitDx=0;exitDy=0;entryX=0;entryY=0.5;entryDx=0;entryDy=0;" parent="1" source="W6bvKB6GYxlx2QuhMemM-275" target="vzvT4Ysu0SMiPI9dVD0g-2" edge="1">
          <mxGeometry relative="1" as="geometry" />
        </mxCell>
        <mxCell id="W6bvKB6GYxlx2QuhMemM-275" value="Вводить коды фактов -&amp;gt; нажимать Правда/Ложь" style="rounded=1;whiteSpace=wrap;html=1;" parent="1" vertex="1">
          <mxGeometry x="355" y="2020" width="120" height="60" as="geometry" />
        </mxCell>
        <mxCell id="W6bvKB6GYxlx2QuhMemM-315" style="edgeStyle=orthogonalEdgeStyle;rounded=0;orthogonalLoop=1;jettySize=auto;html=1;exitX=1;exitY=0.5;exitDx=0;exitDy=0;entryX=0;entryY=0.5;entryDx=0;entryDy=0;fontFamily=Helvetica;fontSize=12;fontColor=default;" parent="1" source="W6bvKB6GYxlx2QuhMemM-276" target="W6bvKB6GYxlx2QuhMemM-292" edge="1">
          <mxGeometry relative="1" as="geometry" />
        </mxCell>
        <mxCell id="W6bvKB6GYxlx2QuhMemM-276" value="&lt;span style=&quot;font-size: 12px;&quot;&gt;В СК есть зарядка на 100 телефонов.&lt;/span&gt;" style="rounded=1;whiteSpace=wrap;html=1;" parent="1" vertex="1">
          <mxGeometry x="110" y="2100" width="120" height="60" as="geometry" />
        </mxCell>
        <mxCell id="W6bvKB6GYxlx2QuhMemM-317" style="edgeStyle=orthogonalEdgeStyle;rounded=0;orthogonalLoop=1;jettySize=auto;html=1;exitX=1;exitY=0.5;exitDx=0;exitDy=0;entryX=0;entryY=0.5;entryDx=0;entryDy=0;fontFamily=Helvetica;fontSize=12;fontColor=default;" parent="1" source="W6bvKB6GYxlx2QuhMemM-277" target="W6bvKB6GYxlx2QuhMemM-316" edge="1">
          <mxGeometry relative="1" as="geometry" />
        </mxCell>
        <mxCell id="W6bvKB6GYxlx2QuhMemM-277" value="&lt;span style=&quot;font-size: 12px;&quot;&gt;Мыла из мух не существует.&lt;/span&gt;" style="rounded=1;whiteSpace=wrap;html=1;" parent="1" vertex="1">
          <mxGeometry x="110" y="2180" width="120" height="60" as="geometry" />
        </mxCell>
        <mxCell id="W6bvKB6GYxlx2QuhMemM-319" style="edgeStyle=orthogonalEdgeStyle;rounded=0;orthogonalLoop=1;jettySize=auto;html=1;exitX=1;exitY=0.5;exitDx=0;exitDy=0;entryX=0;entryY=0.5;entryDx=0;entryDy=0;fontFamily=Helvetica;fontSize=12;fontColor=default;" parent="1" source="W6bvKB6GYxlx2QuhMemM-278" target="W6bvKB6GYxlx2QuhMemM-318" edge="1">
          <mxGeometry relative="1" as="geometry" />
        </mxCell>
        <mxCell id="W6bvKB6GYxlx2QuhMemM-278" value="&lt;span style=&quot;font-size: 12px;&quot;&gt;Кубик может помочь выспаться.&lt;/span&gt;" style="rounded=1;whiteSpace=wrap;html=1;" parent="1" vertex="1">
          <mxGeometry x="110" y="2260" width="120" height="60" as="geometry" />
        </mxCell>
        <mxCell id="W6bvKB6GYxlx2QuhMemM-321" style="edgeStyle=orthogonalEdgeStyle;rounded=0;orthogonalLoop=1;jettySize=auto;html=1;exitX=1;exitY=0.5;exitDx=0;exitDy=0;entryX=0;entryY=0.5;entryDx=0;entryDy=0;fontFamily=Helvetica;fontSize=12;fontColor=default;" parent="1" source="W6bvKB6GYxlx2QuhMemM-279" target="W6bvKB6GYxlx2QuhMemM-320" edge="1">
          <mxGeometry relative="1" as="geometry" />
        </mxCell>
        <mxCell id="W6bvKB6GYxlx2QuhMemM-279" value="&lt;span style=&quot;font-size: 12px;&quot;&gt;Только в сколково есть кофе, сваренный роботом.&lt;/span&gt;" style="rounded=1;whiteSpace=wrap;html=1;" parent="1" vertex="1">
          <mxGeometry x="409" y="2100" width="120" height="60" as="geometry" />
        </mxCell>
        <mxCell id="W6bvKB6GYxlx2QuhMemM-323" style="edgeStyle=orthogonalEdgeStyle;rounded=0;orthogonalLoop=1;jettySize=auto;html=1;exitX=1;exitY=0.5;exitDx=0;exitDy=0;entryX=0;entryY=0.5;entryDx=0;entryDy=0;fontFamily=Helvetica;fontSize=12;fontColor=default;" parent="1" source="W6bvKB6GYxlx2QuhMemM-280" target="W6bvKB6GYxlx2QuhMemM-322" edge="1">
          <mxGeometry relative="1" as="geometry" />
        </mxCell>
        <mxCell id="W6bvKB6GYxlx2QuhMemM-280" value="&lt;span style=&quot;font-size: 12px;&quot;&gt;В СК есть Блиндозер.&lt;/span&gt;" style="rounded=1;whiteSpace=wrap;html=1;" parent="1" vertex="1">
          <mxGeometry x="409" y="2180" width="120" height="60" as="geometry" />
        </mxCell>
        <mxCell id="W6bvKB6GYxlx2QuhMemM-342" style="edgeStyle=orthogonalEdgeStyle;rounded=0;orthogonalLoop=1;jettySize=auto;html=1;exitX=1;exitY=0.5;exitDx=0;exitDy=0;fontFamily=Helvetica;fontSize=12;fontColor=default;" parent="1" source="W6bvKB6GYxlx2QuhMemM-281" target="W6bvKB6GYxlx2QuhMemM-341" edge="1">
          <mxGeometry relative="1" as="geometry" />
        </mxCell>
        <mxCell id="W6bvKB6GYxlx2QuhMemM-281" value="&lt;span style=&quot;font-size: 12px;&quot;&gt;Есть искусственный интелект, исправляющий прикус за полгода.&lt;/span&gt;" style="rounded=1;whiteSpace=wrap;html=1;" parent="1" vertex="1">
          <mxGeometry x="409" y="2260" width="151" height="60" as="geometry" />
        </mxCell>
        <mxCell id="W6bvKB6GYxlx2QuhMemM-346" style="edgeStyle=orthogonalEdgeStyle;rounded=0;orthogonalLoop=1;jettySize=auto;html=1;exitX=0.5;exitY=1;exitDx=0;exitDy=0;entryX=0.5;entryY=0;entryDx=0;entryDy=0;fontFamily=Helvetica;fontSize=12;fontColor=default;" parent="1" source="W6bvKB6GYxlx2QuhMemM-283" target="W6bvKB6GYxlx2QuhMemM-345" edge="1">
          <mxGeometry relative="1" as="geometry" />
        </mxCell>
        <mxCell id="W6bvKB6GYxlx2QuhMemM-283" value="&lt;span style=&quot;font-size: 12px;&quot;&gt;Первую ракету презентовали в зале Казан.&lt;/span&gt;" style="rounded=1;whiteSpace=wrap;html=1;" parent="1" vertex="1">
          <mxGeometry x="670" y="2180" width="120" height="60" as="geometry" />
        </mxCell>
        <mxCell id="W6bvKB6GYxlx2QuhMemM-354" style="edgeStyle=orthogonalEdgeStyle;rounded=0;orthogonalLoop=1;jettySize=auto;html=1;exitX=1;exitY=0.5;exitDx=0;exitDy=0;entryX=0;entryY=0.5;entryDx=0;entryDy=0;fontFamily=Helvetica;fontSize=12;fontColor=default;" parent="1" source="W6bvKB6GYxlx2QuhMemM-284" target="W6bvKB6GYxlx2QuhMemM-348" edge="1">
          <mxGeometry relative="1" as="geometry" />
        </mxCell>
        <mxCell id="W6bvKB6GYxlx2QuhMemM-284" value="&lt;span style=&quot;font-size: 12px;&quot;&gt;В СК есть устройство для создания индивидуального дизайна обуви за 3 ч.&lt;/span&gt;" style="rounded=1;whiteSpace=wrap;html=1;" parent="1" vertex="1">
          <mxGeometry x="110" y="2360" width="171" height="60" as="geometry" />
        </mxCell>
        <mxCell id="W6bvKB6GYxlx2QuhMemM-353" style="edgeStyle=orthogonalEdgeStyle;rounded=0;orthogonalLoop=1;jettySize=auto;html=1;exitX=1;exitY=0.5;exitDx=0;exitDy=0;entryX=0;entryY=0.5;entryDx=0;entryDy=0;fontFamily=Helvetica;fontSize=12;fontColor=default;" parent="1" source="W6bvKB6GYxlx2QuhMemM-285" target="W6bvKB6GYxlx2QuhMemM-352" edge="1">
          <mxGeometry relative="1" as="geometry" />
        </mxCell>
        <mxCell id="W6bvKB6GYxlx2QuhMemM-285" value="&lt;span style=&quot;font-size: 12px;&quot;&gt;Промобот умеет танцевать.&lt;/span&gt;" style="rounded=1;whiteSpace=wrap;html=1;" parent="1" vertex="1">
          <mxGeometry x="110" y="2440" width="120" height="60" as="geometry" />
        </mxCell>
        <mxCell id="W6bvKB6GYxlx2QuhMemM-359" style="edgeStyle=orthogonalEdgeStyle;rounded=0;orthogonalLoop=1;jettySize=auto;html=1;exitX=1;exitY=0.5;exitDx=0;exitDy=0;entryX=0;entryY=0.5;entryDx=0;entryDy=0;fontFamily=Helvetica;fontSize=12;fontColor=default;" parent="1" source="W6bvKB6GYxlx2QuhMemM-287" target="W6bvKB6GYxlx2QuhMemM-358" edge="1">
          <mxGeometry relative="1" as="geometry" />
        </mxCell>
        <mxCell id="W6bvKB6GYxlx2QuhMemM-287" value="&lt;span style=&quot;font-size: 12px;&quot;&gt;Транспортировачная коляска может сама спускаться по лестнице.&lt;/span&gt;" style="rounded=1;whiteSpace=wrap;html=1;" parent="1" vertex="1">
          <mxGeometry x="110" y="2520" width="130" height="60" as="geometry" />
        </mxCell>
        <mxCell id="W6bvKB6GYxlx2QuhMemM-363" style="edgeStyle=orthogonalEdgeStyle;rounded=0;orthogonalLoop=1;jettySize=auto;html=1;exitX=1;exitY=0.5;exitDx=0;exitDy=0;entryX=0;entryY=0.5;entryDx=0;entryDy=0;fontFamily=Helvetica;fontSize=12;fontColor=default;" parent="1" source="W6bvKB6GYxlx2QuhMemM-288" target="W6bvKB6GYxlx2QuhMemM-362" edge="1">
          <mxGeometry relative="1" as="geometry" />
        </mxCell>
        <mxCell id="W6bvKB6GYxlx2QuhMemM-288" value="&lt;span style=&quot;font-size: 12px;&quot;&gt;Внутри робота FIBBEE сидит бариста, который варит кофе.&lt;/span&gt;" style="rounded=1;whiteSpace=wrap;html=1;" parent="1" vertex="1">
          <mxGeometry x="459" y="2360" width="145" height="60" as="geometry" />
        </mxCell>
        <mxCell id="W6bvKB6GYxlx2QuhMemM-368" style="edgeStyle=orthogonalEdgeStyle;rounded=0;orthogonalLoop=1;jettySize=auto;html=1;exitX=1;exitY=0.5;exitDx=0;exitDy=0;entryX=0;entryY=0.5;entryDx=0;entryDy=0;fontFamily=Helvetica;fontSize=12;fontColor=default;" parent="1" source="W6bvKB6GYxlx2QuhMemM-290" target="W6bvKB6GYxlx2QuhMemM-367" edge="1">
          <mxGeometry relative="1" as="geometry" />
        </mxCell>
        <mxCell id="W6bvKB6GYxlx2QuhMemM-290" value="&lt;span style=&quot;font-size: 12px; text-align: left;&quot;&gt;В Сколково есть стекло, которое заменяет батарею.&lt;/span&gt;" style="rounded=1;whiteSpace=wrap;html=1;" parent="1" vertex="1">
          <mxGeometry x="460" y="2440" width="125" height="60" as="geometry" />
        </mxCell>
        <mxCell id="W6bvKB6GYxlx2QuhMemM-292" value="Правда" style="ellipse;whiteSpace=wrap;html=1;aspect=fixed;" parent="1" vertex="1">
          <mxGeometry x="250" y="2100" width="60" height="60" as="geometry" />
        </mxCell>
        <mxCell id="W6bvKB6GYxlx2QuhMemM-295" style="edgeStyle=orthogonalEdgeStyle;rounded=0;orthogonalLoop=1;jettySize=auto;html=1;exitX=0.5;exitY=1;exitDx=0;exitDy=0;entryX=0.5;entryY=0;entryDx=0;entryDy=0;fontFamily=Helvetica;fontSize=12;fontColor=default;" parent="1" source="W6bvKB6GYxlx2QuhMemM-293" target="W6bvKB6GYxlx2QuhMemM-294" edge="1">
          <mxGeometry relative="1" as="geometry" />
        </mxCell>
        <mxCell id="W6bvKB6GYxlx2QuhMemM-293" value="&lt;span style=&quot;font-size: 14px; text-align: left;&quot;&gt;*Моторика&lt;/span&gt;" style="rounded=1;whiteSpace=wrap;html=1;" parent="1" vertex="1">
          <mxGeometry x="640" y="1240" width="120" height="60" as="geometry" />
        </mxCell>
        <mxCell id="W6bvKB6GYxlx2QuhMemM-297" style="edgeStyle=orthogonalEdgeStyle;rounded=0;orthogonalLoop=1;jettySize=auto;html=1;exitX=0.5;exitY=1;exitDx=0;exitDy=0;entryX=0.5;entryY=0;entryDx=0;entryDy=0;fontFamily=Helvetica;fontSize=12;fontColor=default;" parent="1" source="W6bvKB6GYxlx2QuhMemM-294" target="W6bvKB6GYxlx2QuhMemM-296" edge="1">
          <mxGeometry relative="1" as="geometry" />
        </mxCell>
        <mxCell id="W6bvKB6GYxlx2QuhMemM-294" value="&lt;span style=&quot;font-size: 12px;&quot;&gt;Ввестикод лаборатории.&lt;/span&gt;" style="rounded=1;whiteSpace=wrap;html=1;" parent="1" vertex="1">
          <mxGeometry x="640" y="1320" width="120" height="50" as="geometry" />
        </mxCell>
        <mxCell id="W6bvKB6GYxlx2QuhMemM-299" style="edgeStyle=orthogonalEdgeStyle;rounded=0;orthogonalLoop=1;jettySize=auto;html=1;exitX=0.5;exitY=1;exitDx=0;exitDy=0;entryX=0.5;entryY=0;entryDx=0;entryDy=0;fontFamily=Helvetica;fontSize=12;fontColor=default;" parent="1" source="W6bvKB6GYxlx2QuhMemM-296" target="W6bvKB6GYxlx2QuhMemM-298" edge="1">
          <mxGeometry relative="1" as="geometry" />
        </mxCell>
        <mxCell id="W6bvKB6GYxlx2QuhMemM-296" value="5445" style="ellipse;whiteSpace=wrap;html=1;aspect=fixed;" parent="1" vertex="1">
          <mxGeometry x="670" y="1390" width="60" height="60" as="geometry" />
        </mxCell>
        <mxCell id="W6bvKB6GYxlx2QuhMemM-301" style="edgeStyle=orthogonalEdgeStyle;rounded=0;orthogonalLoop=1;jettySize=auto;html=1;exitX=0.5;exitY=1;exitDx=0;exitDy=0;entryX=0.5;entryY=0;entryDx=0;entryDy=0;fontFamily=Helvetica;fontSize=12;fontColor=default;" parent="1" source="W6bvKB6GYxlx2QuhMemM-298" target="W6bvKB6GYxlx2QuhMemM-300" edge="1">
          <mxGeometry relative="1" as="geometry" />
        </mxCell>
        <mxCell id="W6bvKB6GYxlx2QuhMemM-298" value="Задание в COSPACES:&lt;div&gt;&lt;a href=&quot;https://edu.cospaces.io/JYR-TEZ&quot;&gt;https://edu.cospaces.io/JYR-TEZ&lt;/a&gt;&lt;br&gt;&lt;/div&gt;" style="rounded=1;whiteSpace=wrap;html=1;" parent="1" vertex="1">
          <mxGeometry x="600" y="1470" width="200" height="50" as="geometry" />
        </mxCell>
        <mxCell id="W6bvKB6GYxlx2QuhMemM-303" style="edgeStyle=orthogonalEdgeStyle;rounded=0;orthogonalLoop=1;jettySize=auto;html=1;exitX=0.5;exitY=1;exitDx=0;exitDy=0;entryX=0.5;entryY=0;entryDx=0;entryDy=0;fontFamily=Helvetica;fontSize=12;fontColor=default;" parent="1" source="W6bvKB6GYxlx2QuhMemM-300" target="W6bvKB6GYxlx2QuhMemM-302" edge="1">
          <mxGeometry relative="1" as="geometry" />
        </mxCell>
        <mxCell id="W6bvKB6GYxlx2QuhMemM-300" value="2904" style="ellipse;whiteSpace=wrap;html=1;aspect=fixed;" parent="1" vertex="1">
          <mxGeometry x="670" y="1540" width="60" height="60" as="geometry" />
        </mxCell>
        <mxCell id="W6bvKB6GYxlx2QuhMemM-305" style="edgeStyle=orthogonalEdgeStyle;rounded=0;orthogonalLoop=1;jettySize=auto;html=1;exitX=0.5;exitY=1;exitDx=0;exitDy=0;entryX=0.5;entryY=0;entryDx=0;entryDy=0;fontFamily=Helvetica;fontSize=12;fontColor=default;" parent="1" source="W6bvKB6GYxlx2QuhMemM-302" target="W6bvKB6GYxlx2QuhMemM-304" edge="1">
          <mxGeometry relative="1" as="geometry" />
        </mxCell>
        <mxCell id="W6bvKB6GYxlx2QuhMemM-302" value="&lt;div&gt;Ввести сколько недель&amp;nbsp;&lt;/div&gt;&lt;div&gt;делается протез:&lt;/div&gt;&lt;div&gt;&lt;a href=&quot;https://edu.cospaces.io/JYR-TEZ&quot;&gt;https://edu.cospaces.io/JYR-TEZ&lt;/a&gt;&lt;br&gt;&lt;/div&gt;" style="rounded=1;whiteSpace=wrap;html=1;" parent="1" vertex="1">
          <mxGeometry x="600" y="1620" width="200" height="60" as="geometry" />
        </mxCell>
        <mxCell id="W6bvKB6GYxlx2QuhMemM-304" value="3" style="ellipse;whiteSpace=wrap;html=1;aspect=fixed;" parent="1" vertex="1">
          <mxGeometry x="670" y="1700" width="60" height="60" as="geometry" />
        </mxCell>
        <mxCell id="W6bvKB6GYxlx2QuhMemM-308" style="edgeStyle=orthogonalEdgeStyle;rounded=0;orthogonalLoop=1;jettySize=auto;html=1;exitX=0.5;exitY=1;exitDx=0;exitDy=0;entryX=0.5;entryY=0;entryDx=0;entryDy=0;fontFamily=Helvetica;fontSize=12;fontColor=default;" parent="1" source="W6bvKB6GYxlx2QuhMemM-306" target="W6bvKB6GYxlx2QuhMemM-307" edge="1">
          <mxGeometry relative="1" as="geometry" />
        </mxCell>
        <mxCell id="W6bvKB6GYxlx2QuhMemM-306" value="&lt;span style=&quot;font-size: 14px; text-align: left;&quot;&gt;*Костюм AR&lt;/span&gt;" style="rounded=1;whiteSpace=wrap;html=1;" parent="1" vertex="1">
          <mxGeometry x="535" y="1760" width="120" height="60" as="geometry" />
        </mxCell>
        <mxCell id="W6bvKB6GYxlx2QuhMemM-312" style="edgeStyle=orthogonalEdgeStyle;rounded=0;orthogonalLoop=1;jettySize=auto;html=1;exitX=0.5;exitY=1;exitDx=0;exitDy=0;entryX=0.5;entryY=0;entryDx=0;entryDy=0;fontFamily=Helvetica;fontSize=12;fontColor=default;" parent="1" source="W6bvKB6GYxlx2QuhMemM-307" target="W6bvKB6GYxlx2QuhMemM-311" edge="1">
          <mxGeometry relative="1" as="geometry" />
        </mxCell>
        <mxCell id="W6bvKB6GYxlx2QuhMemM-307" value="Ввести название жизненно важной профессии, чей костюм можно примерить." style="rounded=1;whiteSpace=wrap;html=1;" parent="1" vertex="1">
          <mxGeometry x="490" y="1840" width="200" height="60" as="geometry" />
        </mxCell>
        <mxCell id="W6bvKB6GYxlx2QuhMemM-311" value="~Пожарный" style="ellipse;whiteSpace=wrap;html=1;aspect=fixed;" parent="1" vertex="1">
          <mxGeometry x="560" y="1920" width="60" height="60" as="geometry" />
        </mxCell>
        <mxCell id="W6bvKB6GYxlx2QuhMemM-316" value="Ложь" style="ellipse;whiteSpace=wrap;html=1;aspect=fixed;" parent="1" vertex="1">
          <mxGeometry x="250" y="2180" width="60" height="60" as="geometry" />
        </mxCell>
        <mxCell id="W6bvKB6GYxlx2QuhMemM-318" value="Правда" style="ellipse;whiteSpace=wrap;html=1;aspect=fixed;" parent="1" vertex="1">
          <mxGeometry x="250" y="2260" width="60" height="60" as="geometry" />
        </mxCell>
        <mxCell id="W6bvKB6GYxlx2QuhMemM-320" value="Ложь" style="ellipse;whiteSpace=wrap;html=1;aspect=fixed;" parent="1" vertex="1">
          <mxGeometry x="553" y="2100" width="60" height="60" as="geometry" />
        </mxCell>
        <mxCell id="W6bvKB6GYxlx2QuhMemM-322" value="Ложь" style="ellipse;whiteSpace=wrap;html=1;aspect=fixed;" parent="1" vertex="1">
          <mxGeometry x="553" y="2180" width="60" height="60" as="geometry" />
        </mxCell>
        <mxCell id="W6bvKB6GYxlx2QuhMemM-330" style="edgeStyle=orthogonalEdgeStyle;rounded=0;orthogonalLoop=1;jettySize=auto;html=1;exitX=1;exitY=0.5;exitDx=0;exitDy=0;entryX=0;entryY=0.5;entryDx=0;entryDy=0;fontFamily=Helvetica;fontSize=12;fontColor=default;" parent="1" source="W6bvKB6GYxlx2QuhMemM-329" target="W6bvKB6GYxlx2QuhMemM-276" edge="1">
          <mxGeometry relative="1" as="geometry" />
        </mxCell>
        <mxCell id="W6bvKB6GYxlx2QuhMemM-329" value="5384" style="ellipse;whiteSpace=wrap;html=1;aspect=fixed;" parent="1" vertex="1">
          <mxGeometry x="30" y="2100" width="60" height="60" as="geometry" />
        </mxCell>
        <mxCell id="W6bvKB6GYxlx2QuhMemM-333" style="edgeStyle=orthogonalEdgeStyle;rounded=0;orthogonalLoop=1;jettySize=auto;html=1;exitX=1;exitY=0.5;exitDx=0;exitDy=0;entryX=0;entryY=0.5;entryDx=0;entryDy=0;fontFamily=Helvetica;fontSize=12;fontColor=default;" parent="1" source="W6bvKB6GYxlx2QuhMemM-331" target="W6bvKB6GYxlx2QuhMemM-277" edge="1">
          <mxGeometry relative="1" as="geometry" />
        </mxCell>
        <mxCell id="W6bvKB6GYxlx2QuhMemM-331" value="8476" style="ellipse;whiteSpace=wrap;html=1;aspect=fixed;" parent="1" vertex="1">
          <mxGeometry x="30" y="2180" width="60" height="60" as="geometry" />
        </mxCell>
        <mxCell id="W6bvKB6GYxlx2QuhMemM-334" style="edgeStyle=orthogonalEdgeStyle;rounded=0;orthogonalLoop=1;jettySize=auto;html=1;exitX=1;exitY=0.5;exitDx=0;exitDy=0;entryX=0;entryY=0.5;entryDx=0;entryDy=0;fontFamily=Helvetica;fontSize=12;fontColor=default;" parent="1" source="W6bvKB6GYxlx2QuhMemM-332" target="W6bvKB6GYxlx2QuhMemM-278" edge="1">
          <mxGeometry relative="1" as="geometry" />
        </mxCell>
        <mxCell id="W6bvKB6GYxlx2QuhMemM-332" value="9347" style="ellipse;whiteSpace=wrap;html=1;aspect=fixed;" parent="1" vertex="1">
          <mxGeometry x="30" y="2260" width="60" height="60" as="geometry" />
        </mxCell>
        <mxCell id="W6bvKB6GYxlx2QuhMemM-337" style="edgeStyle=orthogonalEdgeStyle;rounded=0;orthogonalLoop=1;jettySize=auto;html=1;exitX=1;exitY=0.5;exitDx=0;exitDy=0;entryX=0;entryY=0.5;entryDx=0;entryDy=0;fontFamily=Helvetica;fontSize=12;fontColor=default;" parent="1" source="W6bvKB6GYxlx2QuhMemM-335" target="W6bvKB6GYxlx2QuhMemM-279" edge="1">
          <mxGeometry relative="1" as="geometry" />
        </mxCell>
        <mxCell id="W6bvKB6GYxlx2QuhMemM-335" value="2537" style="ellipse;whiteSpace=wrap;html=1;aspect=fixed;" parent="1" vertex="1">
          <mxGeometry x="329" y="2100" width="60" height="60" as="geometry" />
        </mxCell>
        <mxCell id="W6bvKB6GYxlx2QuhMemM-338" style="edgeStyle=orthogonalEdgeStyle;rounded=0;orthogonalLoop=1;jettySize=auto;html=1;exitX=1;exitY=0.5;exitDx=0;exitDy=0;entryX=0;entryY=0.5;entryDx=0;entryDy=0;fontFamily=Helvetica;fontSize=12;fontColor=default;" parent="1" source="W6bvKB6GYxlx2QuhMemM-336" target="W6bvKB6GYxlx2QuhMemM-280" edge="1">
          <mxGeometry relative="1" as="geometry" />
        </mxCell>
        <mxCell id="W6bvKB6GYxlx2QuhMemM-336" value="6956" style="ellipse;whiteSpace=wrap;html=1;aspect=fixed;" parent="1" vertex="1">
          <mxGeometry x="329" y="2180" width="60" height="60" as="geometry" />
        </mxCell>
        <mxCell id="W6bvKB6GYxlx2QuhMemM-340" style="edgeStyle=orthogonalEdgeStyle;rounded=0;orthogonalLoop=1;jettySize=auto;html=1;exitX=1;exitY=0.5;exitDx=0;exitDy=0;entryX=0;entryY=0.5;entryDx=0;entryDy=0;fontFamily=Helvetica;fontSize=12;fontColor=default;" parent="1" source="W6bvKB6GYxlx2QuhMemM-339" target="W6bvKB6GYxlx2QuhMemM-281" edge="1">
          <mxGeometry relative="1" as="geometry" />
        </mxCell>
        <mxCell id="W6bvKB6GYxlx2QuhMemM-339" value="2595" style="ellipse;whiteSpace=wrap;html=1;aspect=fixed;" parent="1" vertex="1">
          <mxGeometry x="329" y="2260" width="60" height="60" as="geometry" />
        </mxCell>
        <mxCell id="W6bvKB6GYxlx2QuhMemM-341" value="Правда" style="ellipse;whiteSpace=wrap;html=1;aspect=fixed;" parent="1" vertex="1">
          <mxGeometry x="580" y="2260" width="60" height="60" as="geometry" />
        </mxCell>
        <mxCell id="W6bvKB6GYxlx2QuhMemM-344" style="edgeStyle=orthogonalEdgeStyle;rounded=0;orthogonalLoop=1;jettySize=auto;html=1;exitX=0.5;exitY=1;exitDx=0;exitDy=0;entryX=0.5;entryY=0;entryDx=0;entryDy=0;fontFamily=Helvetica;fontSize=12;fontColor=default;" parent="1" source="W6bvKB6GYxlx2QuhMemM-343" target="W6bvKB6GYxlx2QuhMemM-283" edge="1">
          <mxGeometry relative="1" as="geometry" />
        </mxCell>
        <mxCell id="W6bvKB6GYxlx2QuhMemM-343" value="6939" style="ellipse;whiteSpace=wrap;html=1;aspect=fixed;" parent="1" vertex="1">
          <mxGeometry x="700" y="2100" width="60" height="60" as="geometry" />
        </mxCell>
        <mxCell id="W6bvKB6GYxlx2QuhMemM-345" value="Ложь" style="ellipse;whiteSpace=wrap;html=1;aspect=fixed;" parent="1" vertex="1">
          <mxGeometry x="700" y="2260" width="60" height="60" as="geometry" />
        </mxCell>
        <mxCell id="W6bvKB6GYxlx2QuhMemM-351" style="edgeStyle=orthogonalEdgeStyle;rounded=0;orthogonalLoop=1;jettySize=auto;html=1;exitX=1;exitY=0.5;exitDx=0;exitDy=0;entryX=0;entryY=0.5;entryDx=0;entryDy=0;fontFamily=Helvetica;fontSize=12;fontColor=default;" parent="1" source="W6bvKB6GYxlx2QuhMemM-347" target="W6bvKB6GYxlx2QuhMemM-284" edge="1">
          <mxGeometry relative="1" as="geometry" />
        </mxCell>
        <mxCell id="W6bvKB6GYxlx2QuhMemM-347" value="4727" style="ellipse;whiteSpace=wrap;html=1;aspect=fixed;" parent="1" vertex="1">
          <mxGeometry x="30" y="2360" width="60" height="60" as="geometry" />
        </mxCell>
        <mxCell id="W6bvKB6GYxlx2QuhMemM-348" value="Правда" style="ellipse;whiteSpace=wrap;html=1;aspect=fixed;" parent="1" vertex="1">
          <mxGeometry x="300" y="2360" width="60" height="60" as="geometry" />
        </mxCell>
        <mxCell id="W6bvKB6GYxlx2QuhMemM-350" style="edgeStyle=orthogonalEdgeStyle;rounded=0;orthogonalLoop=1;jettySize=auto;html=1;exitX=1;exitY=0.5;exitDx=0;exitDy=0;entryX=0;entryY=0.5;entryDx=0;entryDy=0;fontFamily=Helvetica;fontSize=12;fontColor=default;" parent="1" source="W6bvKB6GYxlx2QuhMemM-349" target="W6bvKB6GYxlx2QuhMemM-285" edge="1">
          <mxGeometry relative="1" as="geometry" />
        </mxCell>
        <mxCell id="W6bvKB6GYxlx2QuhMemM-349" value="8969" style="ellipse;whiteSpace=wrap;html=1;aspect=fixed;" parent="1" vertex="1">
          <mxGeometry x="30" y="2440" width="60" height="60" as="geometry" />
        </mxCell>
        <mxCell id="W6bvKB6GYxlx2QuhMemM-352" value="Правда" style="ellipse;whiteSpace=wrap;html=1;aspect=fixed;" parent="1" vertex="1">
          <mxGeometry x="250" y="2440" width="60" height="60" as="geometry" />
        </mxCell>
        <mxCell id="W6bvKB6GYxlx2QuhMemM-357" style="edgeStyle=orthogonalEdgeStyle;rounded=0;orthogonalLoop=1;jettySize=auto;html=1;exitX=1;exitY=0.5;exitDx=0;exitDy=0;entryX=0;entryY=0.5;entryDx=0;entryDy=0;fontFamily=Helvetica;fontSize=12;fontColor=default;" parent="1" source="W6bvKB6GYxlx2QuhMemM-356" target="W6bvKB6GYxlx2QuhMemM-287" edge="1">
          <mxGeometry relative="1" as="geometry" />
        </mxCell>
        <mxCell id="W6bvKB6GYxlx2QuhMemM-356" value="3773" style="ellipse;whiteSpace=wrap;html=1;aspect=fixed;" parent="1" vertex="1">
          <mxGeometry x="30" y="2520" width="60" height="60" as="geometry" />
        </mxCell>
        <mxCell id="W6bvKB6GYxlx2QuhMemM-358" value="Правда" style="ellipse;whiteSpace=wrap;html=1;aspect=fixed;" parent="1" vertex="1">
          <mxGeometry x="258" y="2520" width="60" height="60" as="geometry" />
        </mxCell>
        <mxCell id="W6bvKB6GYxlx2QuhMemM-361" style="edgeStyle=orthogonalEdgeStyle;rounded=0;orthogonalLoop=1;jettySize=auto;html=1;exitX=1;exitY=0.5;exitDx=0;exitDy=0;entryX=0;entryY=0.5;entryDx=0;entryDy=0;fontFamily=Helvetica;fontSize=12;fontColor=default;" parent="1" source="W6bvKB6GYxlx2QuhMemM-360" target="W6bvKB6GYxlx2QuhMemM-288" edge="1">
          <mxGeometry relative="1" as="geometry" />
        </mxCell>
        <mxCell id="W6bvKB6GYxlx2QuhMemM-360" value="7898" style="ellipse;whiteSpace=wrap;html=1;aspect=fixed;" parent="1" vertex="1">
          <mxGeometry x="379" y="2360" width="60" height="60" as="geometry" />
        </mxCell>
        <mxCell id="W6bvKB6GYxlx2QuhMemM-362" value="Ложь" style="ellipse;whiteSpace=wrap;html=1;aspect=fixed;" parent="1" vertex="1">
          <mxGeometry x="627.5" y="2360" width="60" height="60" as="geometry" />
        </mxCell>
        <mxCell id="W6bvKB6GYxlx2QuhMemM-365" style="edgeStyle=orthogonalEdgeStyle;rounded=0;orthogonalLoop=1;jettySize=auto;html=1;exitX=1;exitY=0.5;exitDx=0;exitDy=0;entryX=0;entryY=0.5;entryDx=0;entryDy=0;fontFamily=Helvetica;fontSize=12;fontColor=default;" parent="1" source="W6bvKB6GYxlx2QuhMemM-364" target="W6bvKB6GYxlx2QuhMemM-290" edge="1">
          <mxGeometry relative="1" as="geometry" />
        </mxCell>
        <mxCell id="W6bvKB6GYxlx2QuhMemM-364" value="4554" style="ellipse;whiteSpace=wrap;html=1;aspect=fixed;" parent="1" vertex="1">
          <mxGeometry x="379" y="2440" width="60" height="60" as="geometry" />
        </mxCell>
        <mxCell id="W6bvKB6GYxlx2QuhMemM-367" value="Правда" style="ellipse;whiteSpace=wrap;html=1;aspect=fixed;" parent="1" vertex="1">
          <mxGeometry x="605" y="2440" width="60" height="60" as="geometry" />
        </mxCell>
        <mxCell id="W6bvKB6GYxlx2QuhMemM-369" value="Финал - запуск спутника:&lt;br&gt;&amp;nbsp;&lt;a href=&quot;https://www.youtube.com/watch?v=PociZ8u76Hk&amp;amp;list=PLhgObSAq- R2aN1UorHM68aHy2zd-IaS3R&amp;amp;index=7&quot;&gt;https://www.youtube.com/watch?v=PociZ8u76Hk&amp;amp;list=PLhgObSAq-R2aN1UorHM68aHy2zd-IaS3R&amp;amp;index=7&lt;/a&gt;" style="rounded=1;whiteSpace=wrap;html=1;" parent="1" vertex="1">
          <mxGeometry x="380" y="2520" width="280" height="60" as="geometry" />
        </mxCell>
        <mxCell id="vzvT4Ysu0SMiPI9dVD0g-2" value="!В случае правильного/неправильного ответа свой индивидуальный ответ" style="rounded=0;whiteSpace=wrap;html=1;" parent="1" vertex="1">
          <mxGeometry x="499" y="2023.75" width="161" height="52.5" as="geometry" />
        </mxCell>
        <mxCell id="vzvT4Ysu0SMiPI9dVD0g-7" value="Есть общее сообщение о неправильном вводе за искл. *" style="rounded=0;whiteSpace=wrap;html=1;" parent="1" vertex="1">
          <mxGeometry x="573" y="20" width="107" height="65" as="geometry" />
        </mxCell>
      </root>
    </mxGraphModel>
  </diagram>
</mxfile>
